f0ntuni-b.ufo
<glyph name="exclam" format="1">
  <advance width="320"/>
  <unicode hex="0021"/>
  <outline>
    <component base="period"/>
    <contour>
      <point x="110" y="840" type="line"/>
      <point x="210" y="840" type="line"/>
      <point x="210" y="360" type="line"/>
      <point x="190" y="240" type="line"/>
      <point x="130" y="240" type="line"/>
      <point x="110" y="360" type="line"/>
    </contour>
  </outline>
</glyph>
<glyph name="numbersign" format="1">
  <advance width="900"/>
  <unicode hex="0023"/>
  <outline>
    <contour>
      <point x="531" y="290" type="line"/>
      <point x="569" y="500" type="line"/>
      <point x="369" y="500" type="line"/>
      <point x="331" y="290" type="line"/>
    </contour>
    <contour>
      <point x="611" y="290" type="line"/>
      <point x="800" y="290" type="line"/>
      <point x="800" y="220" type="line"/>
      <point x="598" y="220" type="line"/>
      <point x="555" y="0" type="line"/>
      <point x="475" y="0" type="line"/>
      <point x="518" y="220" type="line"/>
      <point x="318" y="220" type="line"/>
      <point x="275" y="0" type="line"/>
      <point x="195" y="0" type="line"/>
      <point x="238" y="220" type="line"/>
      <point x="80" y="220" type="line"/>
      <point x="80" y="290" type="line"/>
      <point x="251" y="290" type="line"/>
      <point x="289" y="500" type="line"/>
      <point x="100" y="500" type="line"/>
      <point x="100" y="570" type="line"/>
      <point x="302" y="570" type="line"/>
      <point x="345" y="800" type="line"/>
      <point x="425" y="800" type="line"/>
      <point x="382" y="570" type="line"/>
      <point x="582" y="570" type="line"/>
      <point x="625" y="800" type="line"/>
      <point x="705" y="800" type="line"/>
      <point x="662" y="570" type="line"/>
      <point x="820" y="570" type="line"/>
      <point x="820" y="500" type="line"/>
      <point x="649" y="500" type="line"/>
    </contour>
  </outline>
</glyph>
<glyph name="percent" format="1">
  <advance width="840"/>
  <unicode hex="0025"/>
  <outline>
    <contour>
      <point x="650" y="800" type="line"/>
      <point x="750" y="800" type="line"/>
      <point x="190" y="0" type="line"/>
      <point x="90" y="0" type="line"/>
    </contour>
    <contour>
      <point x="230" y="810" type="curve" smooth="yes"/>
      <point x="324" y="810"/>
      <point x="390" y="729"/>
      <point x="390" y="630" type="curve" smooth="yes"/>
      <point x="390" y="531"/>
      <point x="324" y="450"/>
      <point x="230" y="450" type="curve" smooth="yes"/>
      <point x="136" y="450"/>
      <point x="70" y="531"/>
      <point x="70" y="630" type="curve" smooth="yes"/>
      <point x="70" y="729"/>
      <point x="136" y="810"/>
    </contour>
    <contour>
      <point x="230" y="745" type="curve" smooth="yes"/>
      <point x="173" y="745"/>
      <point x="150" y="682"/>
      <point x="150" y="630" type="curve" smooth="yes"/>
      <point x="150" y="578"/>
      <point x="173" y="515"/>
      <point x="230" y="515" type="curve" smooth="yes"/>
      <point x="287" y="515"/>
      <point x="310" y="578"/>
      <point x="310" y="630" type="curve" smooth="yes"/>
      <point x="310" y="682"/>
      <point x="287" y="745"/>
    </contour>
    <contour>
      <point x="610" y="350" type="curve" smooth="yes"/>
      <point x="704" y="350"/>
      <point x="770" y="269"/>
      <point x="770" y="170" type="curve" smooth="yes"/>
      <point x="770" y="71"/>
      <point x="704" y="-10"/>
      <point x="610" y="-10" type="curve" smooth="yes"/>
      <point x="516" y="-10"/>
      <point x="450" y="71"/>
      <point x="450" y="170" type="curve" smooth="yes"/>
      <point x="450" y="269"/>
      <point x="516" y="350"/>
    </contour>
    <contour>
      <point x="610" y="285" type="curve" smooth="yes"/>
      <point x="553" y="285"/>
      <point x="530" y="222"/>
      <point x="530" y="170" type="curve" smooth="yes"/>
      <point x="530" y="118"/>
      <point x="553" y="55"/>
      <point x="610" y="55" type="curve" smooth="yes"/>
      <point x="667" y="55"/>
      <point x="690" y="118"/>
      <point x="690" y="170" type="curve" smooth="yes"/>
      <point x="690" y="222"/>
      <point x="667" y="285"/>
    </contour>
  </outline>
</glyph>
<glyph name="quotesingle" format="1">
  <advance width="240"/>
  <unicode hex="0027"/>
  <outline>
    <contour>
      <point x="70" y="800" type="line"/>
      <point x="170" y="800" type="line"/>
      <point x="150" y="560" type="line"/>
      <point x="90" y="560" type="line"/>
    </contour>
  </outline>
</glyph>
<glyph name="asterisk" format="1">
  <advance width="510"/>
  <unicode hex="002A"/>
  <outline>
    <contour>
      <point x="433" y="696" type="line"/>
      <point x="454" y="630" type="line"/>
      <point x="312" y="583" type="line"/>
      <point x="400" y="462" type="line"/>
      <point x="344" y="420" type="line"/>
      <point x="255" y="542" type="line"/>
      <point x="166" y="420" type="line"/>
      <point x="110" y="462" type="line"/>
      <point x="198" y="583" type="line"/>
      <point x="56" y="630" type="line"/>
      <point x="77" y="696" type="line"/>
      <point x="220" y="650" type="line"/>
      <point x="220" y="800" type="line"/>
      <point x="290" y="800" type="line"/>
      <point x="290" y="650" type="line"/>
    </contour>
  </outline>
</glyph>
<glyph name="hyphen" format="1">
  <advance width="560"/>
  <unicode hex="002D"/>
  <outline>
    <contour>
      <point x="80" y="355" type="line"/>
      <point x="480" y="355" type="line"/>
      <point x="480" y="285" type="line"/>
      <point x="80" y="285" type="line"/>
    </contour>
  </outline>
</glyph>
<glyph name="period" format="1">
  <advance width="320"/>
  <unicode hex="002E"/>
  <outline>
    <contour>
      <point x="230" y="70" type="curve" smooth="yes"/>
      <point x="230" y="31"/>
      <point x="199" y="0"/>
      <point x="160" y="0" type="curve" smooth="yes"/>
      <point x="121" y="0"/>
      <point x="90" y="31"/>
      <point x="90" y="70" type="curve" smooth="yes"/>
      <point x="90" y="109"/>
      <point x="121" y="140"/>
      <point x="160" y="140" type="curve" smooth="yes"/>
      <point x="199" y="140"/>
      <point x="230" y="109"/>
    </contour>
  </outline>
</glyph>
<glyph name="slash" format="1">
  <advance width="450"/>
  <unicode hex="002F"/>
  <outline>
    <contour>
      <point x="330" y="840" type="line"/>
      <point x="410" y="840" type="line"/>
      <point x="120" y="-120" type="line"/>
      <point x="40" y="-120" type="line"/>
    </contour>
  </outline>
</glyph>
<glyph name="five" format="1">
  <advance width="660"/>
  <unicode hex="0035"/>
  <outline>
    <contour>
      <point x="330" y="-20" type="curve" smooth="yes"/>
      <point x="175" y="-20"/>
      <point x="80" y="85"/>
      <point x="80" y="240" type="curve"/>
      <point x="180" y="240" type="line"/>
      <point x="180" y="141"/>
      <point x="232" y="70"/>
      <point x="330" y="70" type="curve" smooth="yes"/>
      <point x="428" y="70"/>
      <point x="480" y="141"/>
      <point x="480" y="240" type="curve" smooth="yes"/>
      <point x="480" y="339"/>
      <point x="428" y="410"/>
      <point x="330" y="410" type="curve" smooth="yes"/>
      <point x="265" y="410"/>
      <point x="226" y="383"/>
      <point x="200" y="350" type="curve"/>
      <point x="100" y="360" type="line"/>
      <point x="150" y="800" type="line"/>
      <point x="250" y="800" type="line"/>
      <point x="540" y="800" type="line"/>
      <point x="540" y="710" type="line"/>
      <point x="240" y="710" type="line"/>
      <point x="212" y="460" type="line"/>
      <point x="244" y="482"/>
      <point x="284" y="500"/>
      <point x="330" y="500" type="curve" smooth="yes"/>
      <point x="485" y="500"/>
      <point x="580" y="395"/>
      <point x="580" y="240" type="curve" smooth="yes"/>
      <point x="580" y="85"/>
      <point x="485" y="-20"/>
    </contour>
  </outline>
</glyph>
<glyph name="six" format="1">
  <advance width="660"/>
  <unicode hex="0036"/>
  <outline>
    <contour>
      <point x="480" y="240" type="curve" smooth="yes"/>
      <point x="480" y="339"/>
      <point x="428" y="410"/>
      <point x="330" y="410" type="curve" smooth="yes"/>
      <point x="232" y="410"/>
      <point x="180" y="339"/>
      <point x="180" y="240" type="curve" smooth="yes"/>
      <point x="180" y="141"/>
      <point x="232" y="70"/>
      <point x="330" y="70" type="curve" smooth="yes"/>
      <point x="428" y="70"/>
      <point x="480" y="141"/>
    </contour>
    <contour>
      <point x="325" y="820" type="curve" smooth="yes"/>
      <point x="467" y="820"/>
      <point x="570" y="719"/>
      <point x="570" y="595" type="curve"/>
      <point x="470" y="595" type="line"/>
      <point x="470" y="670"/>
      <point x="415" y="730"/>
      <point x="325" y="730" type="curve" smooth="yes"/>
      <point x="235" y="730"/>
      <point x="180" y="670"/>
      <point x="180" y="595" type="curve" smooth="yes"/>
      <point x="180" y="433" type="line"/>
      <point x="220" y="475"/>
      <point x="273" y="500"/>
      <point x="330" y="500" type="curve" smooth="yes"/>
      <point x="485" y="500"/>
      <point x="580" y="395"/>
      <point x="580" y="240" type="curve" smooth="yes"/>
      <point x="580" y="85"/>
      <point x="485" y="-20"/>
      <point x="330" y="-20" type="curve" smooth="yes"/>
      <point x="175" y="-20"/>
      <point x="80" y="85"/>
      <point x="80" y="240" type="curve" smooth="yes"/>
      <point x="80" y="595" type="line" smooth="yes"/>
      <point x="80" y="719"/>
      <point x="183" y="820"/>
    </contour>
  </outline>
</glyph>
<glyph name="A" format="1">
  <advance width="800"/>
  <unicode hex="0041"/>
  <outline>
    <contour>
      <point x="561" y="255" type="line"/>
      <point x="400" y="671" type="line"/>
      <point x="239" y="255" type="line"/>
    </contour>
    <contour>
      <point x="770" y="0" type="line"/>
      <point x="660" y="0" type="line"/>
      <point x="596" y="165" type="line"/>
      <point x="204" y="165" type="line"/>
      <point x="140" y="0" type="line"/>
      <point x="30" y="0" type="line"/>
      <point x="350" y="800" type="line"/>
      <point x="450" y="800" type="line"/>
    </contour>
  </outline>
</glyph>
<glyph name="B" format="1">
  <advance width="780"/>
  <unicode hex="0042"/>
  <outline>
    <contour>
      <point x="400" y="715" type="curve" smooth="yes"/>
      <point x="200" y="715" type="line"/>
      <point x="200" y="460" type="line"/>
      <point x="430" y="460" type="line" smooth="yes"/>
      <point x="522" y="460"/>
      <point x="560" y="516"/>
      <point x="560" y="580" type="curve" smooth="yes"/>
      <point x="560" y="669"/>
      <point x="523" y="715"/>
    </contour>
    <contour>
      <point x="460" y="0" type="curve" smooth="yes"/>
      <point x="100" y="0" type="line"/>
      <point x="100" y="800" type="line"/>
      <point x="400" y="800" type="line" smooth="yes"/>
      <point x="601" y="800"/>
      <point x="660" y="688"/>
      <point x="660" y="580" type="curve" smooth="yes"/>
      <point x="660" y="516"/>
      <point x="632" y="458"/>
      <point x="579" y="421" type="curve"/>
      <point x="653" y="387"/>
      <point x="700" y="323"/>
      <point x="700" y="230" type="curve" smooth="yes"/>
      <point x="700" y="83"/>
      <point x="613" y="0"/>
    </contour>
    <contour>
      <point x="460" y="90" type="line" smooth="yes"/>
      <point x="562" y="90"/>
      <point x="600" y="154"/>
      <point x="600" y="230" type="curve" smooth="yes"/>
      <point x="600" y="330"/>
      <point x="530" y="370"/>
      <point x="430" y="370" type="curve" smooth="yes"/>
      <point x="200" y="370" type="line"/>
      <point x="200" y="90" type="line"/>
    </contour>
  </outline>
</glyph>
<glyph name="E" format="1">
  <advance width="700"/>
  <unicode hex="0045"/>
  <outline>
    <contour>
      <point x="100" y="800" type="line"/>
      <point x="620" y="800" type="line"/>
      <point x="620" y="710" type="line"/>
      <point x="200" y="710" type="line"/>
      <point x="200" y="445" type="line"/>
      <point x="590" y="445" type="line"/>
      <point x="590" y="355" type="line"/>
      <point x="200" y="355" type="line"/>
      <point x="200" y="90" type="line"/>
      <point x="630" y="90" type="line"/>
      <point x="630" y="0" type="line"/>
      <point x="100" y="0" type="line"/>
    </contour>
  </outline>
</glyph>
<glyph name="F" format="1">
  <advance width="660"/>
  <unicode hex="0046"/>
  <outline>
    <contour>
      <point x="100" y="800" type="line"/>
      <point x="620" y="800" type="line"/>
      <point x="620" y="710" type="line"/>
      <point x="200" y="710" type="line"/>
      <point x="200" y="445" type="line"/>
      <point x="590" y="445" type="line"/>
      <point x="590" y="355" type="line"/>
      <point x="200" y="355" type="line"/>
      <point x="200" y="0" type="line"/>
      <point x="100" y="0" type="line"/>
    </contour>
  </outline>
</glyph>
<glyph name="M" format="1">
  <advance width="980"/>
  <unicode hex="004D"/>
  <outline>
    <contour>
      <point x="230" y="800" type="line"/>
      <point x="490" y="170" type="line"/>
      <point x="750" y="800" type="line"/>
      <point x="880" y="800" type="line"/>
      <point x="880" y="0" type="line"/>
      <point x="780" y="0" type="line"/>
      <point x="780" y="630" type="line"/>
      <point x="520" y="0" type="line"/>
      <point x="490" y="0" type="line"/>
      <point x="460" y="0" type="line"/>
      <point x="200" y="630" type="line"/>
      <point x="200" y="0" type="line"/>
      <point x="100" y="0" type="line"/>
      <point x="100" y="800" type="line"/>
    </contour>
  </outline>
</glyph>
<glyph name="N" format="1">
  <advance width="820"/>
  <unicode hex="004E"/>
  <outline>
    <contour>
      <point x="200" y="0" type="line"/>
      <point x="100" y="0" type="line"/>
      <point x="100" y="800" type="line"/>
      <point x="200" y="800" type="line"/>
      <point x="620" y="170" type="line"/>
      <point x="620" y="800" type="line"/>
      <point x="720" y="800" type="line"/>
      <point x="720" y="0" type="line"/>
      <point x="620" y="0" type="line"/>
      <point x="200" y="630" type="line"/>
    </contour>
  </outline>
</glyph>
<glyph name="O" format="1">
  <advance width="800"/>
  <unicode hex="004F"/>
  <outline>
    <contour>
      <point x="620" y="520" type="line" smooth="yes"/>
      <point x="620" y="649"/>
      <point x="527" y="735"/>
      <point x="400" y="735" type="curve" smooth="yes"/>
      <point x="273" y="735"/>
      <point x="180" y="649"/>
      <point x="180" y="520" type="curve" smooth="yes"/>
      <point x="180" y="270" type="line" smooth="yes"/>
      <point x="180" y="150"/>
      <point x="269" y="70"/>
      <point x="400" y="70" type="curve" smooth="yes"/>
      <point x="531" y="70"/>
      <point x="620" y="150"/>
      <point x="620" y="270" type="curve" smooth="yes"/>
    </contour>
    <contour>
      <point x="720" y="520" type="curve" smooth="yes"/>
      <point x="720" y="270" type="line" smooth="yes"/>
      <point x="720" y="88"/>
      <point x="577" y="-20"/>
      <point x="400" y="-20" type="curve" smooth="yes"/>
      <point x="223" y="-20"/>
      <point x="80" y="88"/>
      <point x="80" y="270" type="curve" smooth="yes"/>
      <point x="80" y="520" type="line" smooth="yes"/>
      <point x="80" y="706"/>
      <point x="223" y="820"/>
      <point x="400" y="820" type="curve" smooth="yes"/>
      <point x="577" y="820"/>
      <point x="720" y="707"/>
    </contour>
  </outline>
</glyph>
<glyph name="P" format="1">
  <advance width="740"/>
  <unicode hex="0050"/>
  <outline>
    <contour>
      <point x="420" y="800" type="line" smooth="yes"/>
      <point x="621" y="800"/>
      <point x="680" y="668"/>
      <point x="680" y="560" type="curve" smooth="yes"/>
      <point x="680" y="452"/>
      <point x="621" y="320"/>
      <point x="420" y="320" type="curve" smooth="yes"/>
      <point x="200" y="320" type="line"/>
      <point x="200" y="0" type="line"/>
      <point x="100" y="0" type="line"/>
      <point x="100" y="800" type="line"/>
    </contour>
    <contour>
      <point x="420" y="715" type="curve" smooth="yes"/>
      <point x="200" y="715" type="line"/>
      <point x="200" y="405" type="line"/>
      <point x="420" y="405" type="line" smooth="yes"/>
      <point x="543" y="405"/>
      <point x="580" y="489"/>
      <point x="580" y="560" type="curve" smooth="yes"/>
      <point x="580" y="631"/>
      <point x="543" y="715"/>
    </contour>
  </outline>
</glyph>
<glyph name="R" format="1">
  <advance width="780"/>
  <unicode hex="0052"/>
  <outline>
    <contour>
      <point x="531" y="337" type="curve"/>
      <point x="740" y="0" type="line"/>
      <point x="620" y="0" type="line"/>
      <point x="430" y="320" type="line"/>
      <point x="420" y="320" type="line"/>
      <point x="200" y="320" type="line"/>
      <point x="200" y="0" type="line"/>
      <point x="100" y="0" type="line"/>
      <point x="100" y="800" type="line"/>
      <point x="420" y="800" type="line" smooth="yes"/>
      <point x="621" y="800"/>
      <point x="680" y="668"/>
      <point x="680" y="560" type="curve" smooth="yes"/>
      <point x="680" y="475"/>
      <point x="643" y="376"/>
    </contour>
    <contour>
      <point x="420" y="715" type="curve" smooth="yes"/>
      <point x="200" y="715" type="line"/>
      <point x="200" y="405" type="line"/>
      <point x="420" y="405" type="line" smooth="yes"/>
      <point x="543" y="405"/>
      <point x="580" y="489"/>
      <point x="580" y="560" type="curve" smooth="yes"/>
      <point x="580" y="631"/>
      <point x="543" y="715"/>
    </contour>
  </outline>
</glyph>
<glyph name="W" format="1">
  <advance width="1160"/>
  <unicode hex="0057"/>
  <outline>
    <contour>
      <point x="290" y="0" type="line"/>
      <point x="30" y="800" type="line"/>
      <point x="140" y="800" type="line"/>
      <point x="342" y="151" type="line"/>
      <point x="535" y="800" type="line"/>
      <point x="625" y="800" type="line"/>
      <point x="818" y="151" type="line"/>
      <point x="1020" y="800" type="line"/>
      <point x="1130" y="800" type="line"/>
      <point x="870" y="0" type="line"/>
      <point x="770" y="0" type="line"/>
      <point x="580" y="640" type="line"/>
      <point x="390" y="0" type="line"/>
    </contour>
  </outline>
</glyph>
<glyph name="Y" format="1">
  <advance width="700"/>
  <unicode hex="0059"/>
  <outline>
    <contour>
      <point x="30" y="800" type="line"/>
      <point x="150" y="800" type="line"/>
      <point x="350" y="420" type="line"/>
      <point x="550" y="800" type="line"/>
      <point x="670" y="800" type="line"/>
      <point x="400" y="320" type="line"/>
      <point x="400" y="0" type="line"/>
      <point x="300" y="0" type="line"/>
      <point x="300" y="320" type="line"/>
    </contour>
  </outline>
</glyph>
<glyph name="bracketleft" format="1">
  <advance width="330"/>
  <unicode hex="005B"/>
  <outline>
    <contour>
      <point x="90" y="840" type="line"/>
      <point x="290" y="840" type="line"/>
      <point x="290" y="770" type="line"/>
      <point x="170" y="770" type="line"/>
      <point x="170" y="-50" type="line"/>
      <point x="290" y="-50" type="line"/>
      <point x="290" y="-120" type="line"/>
      <point x="90" y="-120" type="line"/>
    </contour>
  </outline>
</glyph>
<glyph name="asciicircum" format="1">
  <advance width="540"/>
  <unicode hex="005E"/>
  <outline>
    <contour>
      <point x="270" y="736" type="line"/>
      <point x="160" y="560" type="line"/>
      <point x="70" y="560" type="line"/>
      <point x="230" y="800" type="line"/>
      <point x="310" y="800" type="line"/>
      <point x="470" y="560" type="line"/>
      <point x="380" y="560" type="line"/>
    </contour>
  </outline>
</glyph>
<glyph name="underscore" format="1">
  <advance width="640"/>
  <unicode hex="005F"/>
  <outline>
    <contour>
      <point x="80" y="0" type="line"/>
      <point x="560" y="0" type="line"/>
      <point x="560" y="-70" type="line"/>
      <point x="80" y="-70" type="line"/>
    </contour>
  </outline>
</glyph>
<glyph name="d" format="1">
  <advance width="730"/>
  <unicode hex="0064"/>
  <outline>
    <contour>
      <point x="360" y="535" type="curve" smooth="yes"/>
      <point x="275" y="535"/>
      <point x="190" y="489"/>
      <point x="190" y="340" type="curve" smooth="yes"/>
      <point x="190" y="240" type="line" smooth="yes"/>
      <point x="190" y="111"/>
      <point x="268" y="70"/>
      <point x="360" y="70" type="curve" smooth="yes"/>
      <point x="440" y="70"/>
      <point x="498" y="116"/>
      <point x="520" y="161" type="curve"/>
      <point x="520" y="436" type="line"/>
      <point x="491" y="495"/>
      <point x="432" y="535"/>
    </contour>
    <contour>
      <point x="620" y="840" type="line"/>
      <point x="620" y="0" type="line"/>
      <point x="520" y="0" type="line"/>
      <point x="520" y="74" type="line"/>
      <point x="483" y="20"/>
      <point x="422" y="-20"/>
      <point x="340" y="-20" type="curve" smooth="yes"/>
      <point x="184" y="-20"/>
      <point x="90" y="81"/>
      <point x="90" y="240" type="curve" smooth="yes"/>
      <point x="90" y="340" type="line" smooth="yes"/>
      <point x="90" y="528"/>
      <point x="196" y="620"/>
      <point x="340" y="620" type="curve" smooth="yes"/>
      <point x="415" y="620"/>
      <point x="476" y="588"/>
      <point x="520" y="542" type="curve"/>
      <point x="520" y="840" type="line"/>
    </contour>
  </outline>
</glyph>
<glyph name="e" format="1">
  <advance width="690"/>
  <unicode hex="0065"/>
  <outline>
    <contour>
      <point x="610" y="360" type="curve" smooth="yes"/>
      <point x="610" y="290" type="line"/>
      <point x="190" y="290" type="line"/>
      <point x="190" y="200" type="line" smooth="yes"/>
      <point x="190" y="101"/>
      <point x="278" y="70"/>
      <point x="350" y="70" type="curve" smooth="yes"/>
      <point x="422" y="70"/>
      <point x="510" y="101"/>
      <point x="510" y="200" type="curve"/>
      <point x="610" y="200" type="line"/>
      <point x="610" y="47"/>
      <point x="478" y="-20"/>
      <point x="350" y="-20" type="curve" smooth="yes"/>
      <point x="222" y="-20"/>
      <point x="90" y="47"/>
      <point x="90" y="200" type="curve" smooth="yes"/>
      <point x="90" y="360" type="line" smooth="yes"/>
      <point x="90" y="528"/>
      <point x="206" y="620"/>
      <point x="350" y="620" type="curve" smooth="yes"/>
      <point x="494" y="620"/>
      <point x="610" y="528"/>
    </contour>
    <contour>
      <point x="510" y="360" type="line"/>
      <point x="510" y="489"/>
      <point x="435" y="535"/>
      <point x="350" y="535" type="curve" smooth="yes"/>
      <point x="265" y="535"/>
      <point x="190" y="489"/>
      <point x="190" y="360" type="curve"/>
    </contour>
  </outline>
</glyph>
<glyph name="f" format="1">
  <advance width="470"/>
  <unicode hex="0066"/>
  <outline>
    <contour>
      <point x="150" y="0" type="line"/>
      <point x="150" y="515" type="line"/>
      <point x="70" y="515" type="line"/>
      <point x="70" y="600" type="line"/>
      <point x="150" y="600" type="line"/>
      <point x="150" y="690" type="line" smooth="yes"/>
      <point x="150" y="802"/>
      <point x="227" y="860"/>
      <point x="320" y="860" type="curve" smooth="yes"/>
      <point x="409" y="860"/>
      <point x="464" y="810"/>
      <point x="480" y="785" type="curve"/>
      <point x="430" y="730" type="line"/>
      <point x="414" y="751"/>
      <point x="377" y="780"/>
      <point x="330" y="780" type="curve" smooth="yes"/>
      <point x="273" y="780"/>
      <point x="250" y="746"/>
      <point x="250" y="695" type="curve" smooth="yes"/>
      <point x="250" y="600" type="line"/>
      <point x="410" y="600" type="line"/>
      <point x="410" y="515" type="line"/>
      <point x="250" y="515" type="line"/>
      <point x="250" y="0" type="line"/>
    </contour>
  </outline>
</glyph>
<glyph name="g" format="1">
  <advance width="720"/>
  <unicode hex="0067"/>
  <outline>
    <contour>
      <point x="520" y="439" type="line"/>
      <point x="498" y="484"/>
      <point x="440" y="530"/>
      <point x="360" y="530" type="curve" smooth="yes"/>
      <point x="268" y="530"/>
      <point x="190" y="489"/>
      <point x="190" y="360" type="curve" smooth="yes"/>
      <point x="190" y="260" type="line" smooth="yes"/>
      <point x="190" y="111"/>
      <point x="275" y="65"/>
      <point x="360" y="65" type="curve" smooth="yes"/>
      <point x="432" y="65"/>
      <point x="491" y="105"/>
      <point x="520" y="164" type="curve"/>
    </contour>
    <contour>
      <point x="620" y="-80" type="line" smooth="yes"/>
      <point x="620" y="-177"/>
      <point x="530" y="-260"/>
      <point x="370" y="-260" type="curve" smooth="yes"/>
      <point x="210" y="-260"/>
      <point x="120" y="-177"/>
      <point x="120" y="-80" type="curve"/>
      <point x="220" y="-80" type="line"/>
      <point x="220" y="-148"/>
      <point x="293" y="-175"/>
      <point x="370" y="-175" type="curve" smooth="yes"/>
      <point x="447" y="-175"/>
      <point x="520" y="-147"/>
      <point x="520" y="-80" type="curve" smooth="yes"/>
      <point x="520" y="58" type="line"/>
      <point x="476" y="12"/>
      <point x="415" y="-20"/>
      <point x="340" y="-20" type="curve" smooth="yes"/>
      <point x="196" y="-20"/>
      <point x="90" y="72"/>
      <point x="90" y="260" type="curve" smooth="yes"/>
      <point x="90" y="360" type="line" smooth="yes"/>
      <point x="90" y="519"/>
      <point x="184" y="620"/>
      <point x="340" y="620" type="curve" smooth="yes"/>
      <point x="422" y="620"/>
      <point x="483" y="580"/>
      <point x="520" y="526" type="curve"/>
      <point x="520" y="600" type="line"/>
      <point x="620" y="600" type="line"/>
    </contour>
  </outline>
</glyph>
<glyph name="k" format="1">
  <advance width="630"/>
  <unicode hex="006B"/>
  <outline>
    <contour>
      <point x="450" y="600" type="line"/>
      <point x="560" y="600" type="line"/>
      <point x="365" y="335" type="line"/>
      <point x="600" y="0" type="line"/>
      <point x="480" y="0" type="line"/>
      <point x="288" y="280" type="line"/>
      <point x="210" y="280" type="line"/>
      <point x="210" y="0" type="line"/>
      <point x="110" y="0" type="line"/>
      <point x="110" y="840" type="line"/>
      <point x="210" y="840" type="line"/>
      <point x="210" y="370" type="line"/>
      <point x="285" y="370" type="line"/>
    </contour>
  </outline>
</glyph>
<glyph name="n" format="1">
  <advance width="690"/>
  <unicode hex="006E"/>
  <outline>
    <contour>
      <point x="100" y="600" type="line"/>
      <point x="200" y="600" type="line"/>
      <point x="200" y="498" type="line"/>
      <point x="224" y="538"/>
      <point x="286" y="620"/>
      <point x="400" y="620" type="curve" smooth="yes"/>
      <point x="522" y="620"/>
      <point x="600" y="542"/>
      <point x="600" y="420" type="curve" smooth="yes"/>
      <point x="600" y="0" type="line"/>
      <point x="500" y="0" type="line"/>
      <point x="500" y="420" type="line" smooth="yes"/>
      <point x="500" y="495"/>
      <point x="448" y="530"/>
      <point x="380" y="530" type="curve" smooth="yes"/>
      <point x="280" y="530"/>
      <point x="222" y="458"/>
      <point x="200" y="394" type="curve"/>
      <point x="200" y="0" type="line"/>
      <point x="100" y="0" type="line"/>
    </contour>
  </outline>
</glyph>
<glyph name="o" format="1">
  <advance width="680"/>
  <unicode hex="006F"/>
  <outline>
    <contour>
      <point x="340" y="535" type="curve" smooth="yes"/>
      <point x="255" y="535"/>
      <point x="180" y="489"/>
      <point x="180" y="360" type="curve" smooth="yes"/>
      <point x="180" y="220" type="line" smooth="yes"/>
      <point x="180" y="111"/>
      <point x="255" y="70"/>
      <point x="340" y="70" type="curve" smooth="yes"/>
      <point x="425" y="70"/>
      <point x="500" y="111"/>
      <point x="500" y="220" type="curve" smooth="yes"/>
      <point x="500" y="360" type="line" smooth="yes"/>
      <point x="500" y="489"/>
      <point x="425" y="535"/>
    </contour>
    <contour>
      <point x="340" y="620" type="curve" smooth="yes"/>
      <point x="484" y="620"/>
      <point x="600" y="528"/>
      <point x="600" y="360" type="curve" smooth="yes"/>
      <point x="600" y="220" type="line" smooth="yes"/>
      <point x="600" y="57"/>
      <point x="484" y="-20"/>
      <point x="340" y="-20" type="curve" smooth="yes"/>
      <point x="196" y="-20"/>
      <point x="80" y="57"/>
      <point x="80" y="220" type="curve" smooth="yes"/>
      <point x="80" y="360" type="line" smooth="yes"/>
      <point x="80" y="528"/>
      <point x="196" y="620"/>
    </contour>
  </outline>
</glyph>
<glyph name="s" format="1">
  <advance width="660"/>
  <unicode hex="0073"/>
  <outline>
    <contour>
      <point x="80" y="170" type="curve"/>
      <point x="180" y="170" type="line"/>
      <point x="180" y="110"/>
      <point x="233" y="65"/>
      <point x="330" y="65" type="curve" smooth="yes"/>
      <point x="427" y="65"/>
      <point x="475" y="110"/>
      <point x="475" y="165" type="curve" smooth="yes"/>
      <point x="475" y="222"/>
      <point x="408" y="241"/>
      <point x="330" y="260" type="curve" smooth="yes"/>
      <point x="224" y="286"/>
      <point x="100" y="322"/>
      <point x="100" y="445" type="curve" smooth="yes"/>
      <point x="100" y="527"/>
      <point x="171" y="620"/>
      <point x="330" y="620" type="curve" smooth="yes"/>
      <point x="489" y="620"/>
      <point x="560" y="522"/>
      <point x="560" y="440" type="curve"/>
      <point x="460" y="440" type="line"/>
      <point x="460" y="479"/>
      <point x="423" y="535"/>
      <point x="330" y="535" type="curve" smooth="yes"/>
      <point x="237" y="535"/>
      <point x="205" y="484"/>
      <point x="205" y="445" type="curve" smooth="yes"/>
      <point x="205" y="388"/>
      <point x="256" y="369"/>
      <point x="330" y="350" type="curve" smooth="yes"/>
      <point x="450" y="319"/>
      <point x="580" y="298"/>
      <point x="580" y="165" type="curve" smooth="yes"/>
      <point x="580" y="70"/>
      <point x="504" y="-20"/>
      <point x="330" y="-20" type="curve" smooth="yes"/>
      <point x="156" y="-20"/>
      <point x="80" y="70"/>
    </contour>
  </outline>
</glyph>
<glyph name="t" format="1">
  <advance width="510"/>
  <unicode hex="0074"/>
  <outline>
    <contour>
      <point x="150" y="600" type="line"/>
      <point x="150" y="760" type="line"/>
      <point x="250" y="760" type="line"/>
      <point x="250" y="600" type="line"/>
      <point x="410" y="600" type="line"/>
      <point x="410" y="515" type="line"/>
      <point x="250" y="515" type="line"/>
      <point x="250" y="135" type="line" smooth="yes"/>
      <point x="250" y="93"/>
      <point x="261" y="70"/>
      <point x="305" y="70" type="curve" smooth="yes"/>
      <point x="352" y="70"/>
      <point x="381" y="90"/>
      <point x="410" y="110" type="curve"/>
      <point x="440" y="45" type="line"/>
      <point x="413" y="22"/>
      <point x="356" y="-10"/>
      <point x="290" y="-10" type="curve" smooth="yes"/>
      <point x="214" y="-10"/>
      <point x="150" y="26"/>
      <point x="150" y="130" type="curve" smooth="yes"/>
      <point x="150" y="515" type="line"/>
      <point x="70" y="515" type="line"/>
      <point x="70" y="600" type="line"/>
    </contour>
  </outline>
</glyph>
<glyph name="w" format="1">
  <advance width="950"/>
  <unicode hex="0077"/>
  <outline>
    <contour>
      <point x="240" y="0" type="line"/>
      <point x="40" y="600" type="line"/>
      <point x="145" y="600" type="line"/>
      <point x="293" y="128" type="line"/>
      <point x="435" y="600" type="line"/>
      <point x="515" y="600" type="line"/>
      <point x="657" y="128" type="line"/>
      <point x="805" y="600" type="line"/>
      <point x="910" y="600" type="line"/>
      <point x="710" y="0" type="line"/>
      <point x="610" y="0" type="line"/>
      <point x="475" y="445" type="line"/>
      <point x="340" y="0" type="line"/>
    </contour>
  </outline>
</glyph>
<glyph name="x" format="1">
  <advance width="650"/>
  <unicode hex="0078"/>
  <outline>
    <contour>
      <point x="60" y="600" type="line"/>
      <point x="180" y="600" type="line"/>
      <point x="325" y="398" type="line"/>
      <point x="470" y="600" type="line"/>
      <point x="590" y="600" type="line"/>
      <point x="385" y="320" type="line"/>
      <point x="620" y="0" type="line"/>
      <point x="500" y="0" type="line"/>
      <point x="325" y="241" type="line"/>
      <point x="150" y="0" type="line"/>
      <point x="30" y="0" type="line"/>
      <point x="265" y="320" type="line"/>
    </contour>
  </outline>
</glyph>
<glyph name="braceleft" format="1">
  <advance width="390"/>
  <unicode hex="007B"/>
  <outline>
    <contour>
      <point x="40" y="360" type="line"/>
      <point x="40" y="365" type="line"/>
      <point x="79" y="385"/>
      <point x="150" y="432"/>
      <point x="150" y="520" type="curve" smooth="yes"/>
      <point x="150" y="750" type="line" smooth="yes"/>
      <point x="150" y="806"/>
      <point x="193" y="840"/>
      <point x="250" y="840" type="curve" smooth="yes"/>
      <point x="350" y="840" type="line"/>
      <point x="350" y="770" type="line"/>
      <point x="270" y="770" type="line" smooth="yes"/>
      <point x="242" y="770"/>
      <point x="230" y="759"/>
      <point x="230" y="730" type="curve" smooth="yes"/>
      <point x="230" y="520" type="line" smooth="yes"/>
      <point x="230" y="393"/>
      <point x="150" y="360"/>
      <point x="150" y="360" type="curve"/>
      <point x="150" y="360"/>
      <point x="230" y="327"/>
      <point x="230" y="200" type="curve" smooth="yes"/>
      <point x="230" y="-10" type="line" smooth="yes"/>
      <point x="230" y="-39"/>
      <point x="242" y="-50"/>
      <point x="270" y="-50" type="curve" smooth="yes"/>
      <point x="350" y="-50" type="line"/>
      <point x="350" y="-120" type="line"/>
      <point x="250" y="-120" type="line" smooth="yes"/>
      <point x="193" y="-120"/>
      <point x="150" y="-86"/>
      <point x="150" y="-30" type="curve" smooth="yes"/>
      <point x="150" y="200" type="line" smooth="yes"/>
      <point x="150" y="288"/>
      <point x="79" y="335"/>
      <point x="40" y="355" type="curve"/>
    </contour>
  </outline>
</glyph>
<glyph name="asciitilde" format="1">
  <advance width="640"/>
  <unicode hex="007E"/>
  <outline>
    <contour>
      <point x="215" y="400" type="curve" smooth="yes"/>
      <point x="261" y="400"/>
      <point x="291" y="384"/>
      <point x="330" y="355" type="curve" smooth="yes"/>
      <point x="366" y="328"/>
      <point x="379" y="310"/>
      <point x="425" y="310" type="curve" smooth="yes"/>
      <point x="469" y="310"/>
      <point x="496" y="354"/>
      <point x="510" y="390" type="curve"/>
      <point x="560" y="370" type="line"/>
      <point x="550" y="308"/>
      <point x="490" y="240"/>
      <point x="425" y="240" type="curve" smooth="yes"/>
      <point x="379" y="240"/>
      <point x="347" y="257"/>
      <point x="310" y="285" type="curve" smooth="yes"/>
      <point x="272" y="313"/>
      <point x="261" y="330"/>
      <point x="215" y="330" type="curve" smooth="yes"/>
      <point x="171" y="330"/>
      <point x="144" y="286"/>
      <point x="130" y="250" type="curve"/>
      <point x="80" y="270" type="line"/>
      <point x="90" y="332"/>
      <point x="150" y="400"/>
    </contour>
  </outline>
</glyph>
<glyph name="uni0E01" format="1">
  <advance width="680"/>
  <unicode hex="0E01"/>
  <outline>
    <contour>
      <point x="220" y="0" type="line"/>
      <point x="120" y="0" type="line"/>
      <point x="120" y="290" type="line" smooth="yes"/>
      <point x="120" y="350"/>
      <point x="145" y="380"/>
      <point x="169" y="395" type="curve"/>
      <point x="70" y="420" type="line"/>
      <point x="78" y="474"/>
      <point x="164" y="620"/>
      <point x="340" y="620" type="curve" smooth="yes"/>
      <point x="481" y="620"/>
      <point x="590" y="535"/>
      <point x="590" y="400" type="curve" smooth="yes"/>
      <point x="590" y="0" type="line"/>
      <point x="490" y="0" type="line"/>
      <point x="490" y="400" type="line" smooth="yes"/>
      <point x="490" y="482"/>
      <point x="426" y="535"/>
      <point x="340" y="535" type="curve" smooth="yes"/>
      <point x="270" y="535"/>
      <point x="200" y="501"/>
      <point x="176" y="447" type="curve"/>
      <point x="300" y="420" type="line"/>
      <point x="300" y="400" type="line"/>
      <point x="300" y="400"/>
      <point x="220" y="396"/>
      <point x="220" y="290" type="curve" smooth="yes"/>
    </contour>
  </outline>
</glyph>
<glyph name="uni0E03" format="1">
  <advance width="690"/>
  <unicode hex="0E03"/>
  <outline>
    <contour>
      <point x="170" y="450" type="curve" smooth="yes"/>
      <point x="145" y="450"/>
      <point x="125" y="430"/>
      <point x="125" y="405" type="curve" smooth="yes"/>
      <point x="125" y="380"/>
      <point x="145" y="360"/>
      <point x="170" y="360" type="curve" smooth="yes"/>
      <point x="195" y="360"/>
      <point x="215" y="380"/>
      <point x="215" y="405" type="curve" smooth="yes"/>
      <point x="215" y="430"/>
      <point x="195" y="450"/>
    </contour>
    <contour>
      <point x="180" y="610" type="curve" smooth="yes"/>
      <point x="222" y="610"/>
      <point x="253" y="583"/>
      <point x="272" y="552" type="curve"/>
      <point x="301" y="610" type="line"/>
      <point x="329" y="610" type="line"/>
      <point x="386" y="593"/>
      <point x="430" y="542"/>
      <point x="430" y="460" type="curve" smooth="yes"/>
      <point x="430" y="338"/>
      <point x="320" y="308"/>
      <point x="320" y="200" type="curve" smooth="yes"/>
      <point x="320" y="130" type="line" smooth="yes"/>
      <point x="320" y="97"/>
      <point x="355" y="65"/>
      <point x="410" y="65" type="curve" smooth="yes"/>
      <point x="465" y="65"/>
      <point x="500" y="97"/>
      <point x="500" y="130" type="curve" smooth="yes"/>
      <point x="500" y="600" type="line"/>
      <point x="600" y="600" type="line"/>
      <point x="600" y="130" type="line" smooth="yes"/>
      <point x="600" y="92"/>
      <point x="568" y="-20"/>
      <point x="410" y="-20" type="curve" smooth="yes"/>
      <point x="252" y="-20"/>
      <point x="220" y="92"/>
      <point x="220" y="130" type="curve" smooth="yes"/>
      <point x="220" y="200" type="line" smooth="yes"/>
      <point x="220" y="336"/>
      <point x="350" y="358"/>
      <point x="350" y="460" type="curve" smooth="yes"/>
      <point x="350" y="495"/>
      <point x="346" y="523"/>
      <point x="323" y="550" type="curve"/>
      <point x="290" y="490" type="line"/>
      <point x="240" y="490" type="line"/>
      <point x="233" y="522"/>
      <point x="213" y="555"/>
      <point x="180" y="555" type="curve" smooth="yes"/>
      <point x="137" y="555"/>
      <point x="118" y="516"/>
      <point x="115" y="470" type="curve"/>
      <point x="130" y="482"/>
      <point x="149" y="490"/>
      <point x="170" y="490" type="curve" smooth="yes"/>
      <point x="217" y="490"/>
      <point x="255" y="452"/>
      <point x="255" y="405" type="curve" smooth="yes"/>
      <point x="255" y="358"/>
      <point x="217" y="320"/>
      <point x="170" y="320" type="curve" smooth="yes"/>
      <point x="99" y="320"/>
      <point x="60" y="382"/>
      <point x="60" y="460" type="curve" smooth="yes"/>
      <point x="60" y="513"/>
      <point x="92" y="610"/>
    </contour>
  </outline>
</glyph>
<glyph name="uni0E05" format="1">
  <advance width="690"/>
  <unicode hex="0E05"/>
  <outline>
    <contour>
      <point x="340" y="410" type="curve" smooth="yes"/>
      <point x="390" y="410"/>
      <point x="430" y="370"/>
      <point x="430" y="320" type="curve" smooth="yes"/>
      <point x="430" y="270"/>
      <point x="390" y="230"/>
      <point x="340" y="230" type="curve" smooth="yes"/>
      <point x="301" y="230"/>
      <point x="268" y="255"/>
      <point x="255" y="289" type="curve"/>
      <point x="231" y="243"/>
      <point x="210" y="179"/>
      <point x="210" y="120" type="curve" smooth="yes"/>
      <point x="210" y="-10" type="line"/>
      <point x="210" y="-10"/>
      <point x="91" y="-6"/>
      <point x="90" y="30" type="curve"/>
      <point x="90" y="30"/>
      <point x="110" y="79"/>
      <point x="110" y="140" type="curve" smooth="yes"/>
      <point x="110" y="242"/>
      <point x="80" y="285"/>
      <point x="80" y="420" type="curve" smooth="yes"/>
      <point x="80" y="554"/>
      <point x="186" y="620"/>
      <point x="245" y="620" type="curve"/>
      <point x="340" y="550" type="line"/>
      <point x="435" y="620" type="line"/>
      <point x="494" y="620"/>
      <point x="600" y="554"/>
      <point x="600" y="420" type="curve" smooth="yes"/>
      <point x="600" y="0" type="line"/>
      <point x="500" y="0" type="line"/>
      <point x="500" y="420" type="line" smooth="yes"/>
      <point x="500" y="505"/>
      <point x="445" y="530"/>
      <point x="445" y="530" type="curve"/>
      <point x="340" y="460" type="line"/>
      <point x="235" y="530" type="line"/>
      <point x="235" y="530"/>
      <point x="180" y="505"/>
      <point x="180" y="420" type="curve" smooth="yes"/>
      <point x="180" y="359"/>
      <point x="186" y="316"/>
      <point x="193" y="276" type="curve"/>
      <point x="214" y="349"/>
      <point x="269" y="410"/>
    </contour>
    <contour>
      <point x="340" y="365" type="curve" smooth="yes"/>
      <point x="315" y="365"/>
      <point x="295" y="345"/>
      <point x="295" y="320" type="curve" smooth="yes"/>
      <point x="295" y="295"/>
      <point x="315" y="275"/>
      <point x="340" y="275" type="curve" smooth="yes"/>
      <point x="365" y="275"/>
      <point x="385" y="295"/>
      <point x="385" y="320" type="curve" smooth="yes"/>
      <point x="385" y="345"/>
      <point x="365" y="365"/>
    </contour>
  </outline>
</glyph>
<glyph name="uni0E06" format="1">
  <advance width="690"/>
  <unicode hex="0E06"/>
  <outline>
    <contour>
      <point x="170" y="450" type="curve" smooth="yes"/>
      <point x="145" y="450"/>
      <point x="125" y="430"/>
      <point x="125" y="405" type="curve" smooth="yes"/>
      <point x="125" y="380"/>
      <point x="145" y="360"/>
      <point x="170" y="360" type="curve" smooth="yes"/>
      <point x="195" y="360"/>
      <point x="215" y="380"/>
      <point x="215" y="405" type="curve" smooth="yes"/>
      <point x="215" y="430"/>
      <point x="195" y="450"/>
    </contour>
    <contour>
      <point x="205" y="145" type="curve" smooth="yes"/>
      <point x="177" y="145"/>
      <point x="155" y="123"/>
      <point x="155" y="95" type="curve" smooth="yes"/>
      <point x="155" y="67"/>
      <point x="177" y="45"/>
      <point x="205" y="45" type="curve" smooth="yes"/>
      <point x="233" y="45"/>
      <point x="255" y="67"/>
      <point x="255" y="95" type="curve" smooth="yes"/>
      <point x="255" y="123"/>
      <point x="233" y="145"/>
    </contour>
    <contour>
      <point x="500" y="600" type="line"/>
      <point x="600" y="600" type="line"/>
      <point x="600" y="60" type="line" smooth="yes"/>
      <point x="600" y="15"/>
      <point x="543" y="-10"/>
      <point x="480" y="-10" type="curve"/>
      <point x="480" y="-10"/>
      <point x="433" y="80"/>
      <point x="319" y="113" type="curve"/>
      <point x="320" y="107"/>
      <point x="320" y="101"/>
      <point x="320" y="95" type="curve" smooth="yes"/>
      <point x="320" y="31"/>
      <point x="269" y="-20"/>
      <point x="205" y="-20" type="curve" smooth="yes"/>
      <point x="141" y="-20"/>
      <point x="90" y="31"/>
      <point x="90" y="95" type="curve" smooth="yes"/>
      <point x="90" y="159"/>
      <point x="141" y="210"/>
      <point x="205" y="210" type="curve" smooth="yes"/>
      <point x="210" y="210"/>
      <point x="215" y="210"/>
      <point x="220" y="209" type="curve"/>
      <point x="226" y="337"/>
      <point x="350" y="360"/>
      <point x="350" y="460" type="curve" smooth="yes"/>
      <point x="350" y="495"/>
      <point x="346" y="523"/>
      <point x="323" y="550" type="curve"/>
      <point x="290" y="490" type="line"/>
      <point x="240" y="490" type="line"/>
      <point x="233" y="522"/>
      <point x="213" y="555"/>
      <point x="180" y="555" type="curve" smooth="yes"/>
      <point x="137" y="555"/>
      <point x="118" y="516"/>
      <point x="115" y="470" type="curve"/>
      <point x="130" y="482"/>
      <point x="149" y="490"/>
      <point x="170" y="490" type="curve" smooth="yes"/>
      <point x="217" y="490"/>
      <point x="255" y="452"/>
      <point x="255" y="405" type="curve" smooth="yes"/>
      <point x="255" y="358"/>
      <point x="217" y="320"/>
      <point x="170" y="320" type="curve" smooth="yes"/>
      <point x="99" y="320"/>
      <point x="60" y="382"/>
      <point x="60" y="460" type="curve" smooth="yes"/>
      <point x="60" y="513"/>
      <point x="92" y="610"/>
      <point x="180" y="610" type="curve" smooth="yes"/>
      <point x="222" y="610"/>
      <point x="253" y="583"/>
      <point x="272" y="552" type="curve"/>
      <point x="301" y="610" type="line"/>
      <point x="329" y="610" type="line"/>
      <point x="386" y="593"/>
      <point x="430" y="542"/>
      <point x="430" y="460" type="curve" smooth="yes"/>
      <point x="430" y="338"/>
      <point x="320" y="308"/>
      <point x="320" y="200" type="curve" smooth="yes"/>
      <point x="320" y="194" type="line"/>
      <point x="399" y="175"/>
      <point x="461" y="132"/>
      <point x="500" y="90" type="curve"/>
    </contour>
  </outline>
</glyph>
<glyph name="uni0E07" format="1">
  <advance width="580"/>
  <unicode hex="0E07"/>
  <outline>
    <contour>
      <point x="370" y="70" type="curve"/>
      <point x="370" y="390" type="line"/>
      <point x="360" y="390" type="line" smooth="yes"/>
      <point x="299" y="390"/>
      <point x="250" y="439"/>
      <point x="250" y="500" type="curve" smooth="yes"/>
      <point x="250" y="561"/>
      <point x="299" y="610"/>
      <point x="360" y="610" type="curve" smooth="yes"/>
      <point x="421" y="610"/>
      <point x="470" y="561"/>
      <point x="470" y="500" type="curve" smooth="yes"/>
      <point x="470" y="60" type="line" smooth="yes"/>
      <point x="470" y="15"/>
      <point x="393" y="-10"/>
      <point x="330" y="-10" type="curve"/>
      <point x="204" y="209"/>
      <point x="99" y="300"/>
      <point x="50" y="300" type="curve"/>
      <point x="50" y="380" type="line"/>
      <point x="147" y="380"/>
      <point x="246" y="278"/>
    </contour>
    <contour>
      <point x="360" y="550" type="curve" smooth="yes"/>
      <point x="332" y="550"/>
      <point x="310" y="528"/>
      <point x="310" y="500" type="curve" smooth="yes"/>
      <point x="310" y="472"/>
      <point x="332" y="450"/>
      <point x="360" y="450" type="curve" smooth="yes"/>
      <point x="388" y="450"/>
      <point x="410" y="472"/>
      <point x="410" y="500" type="curve" smooth="yes"/>
      <point x="410" y="528"/>
      <point x="388" y="550"/>
    </contour>
  </outline>
</glyph>
<glyph name="uni0E08" format="1">
  <advance width="630"/>
  <unicode hex="0E08"/>
  <outline>
    <contour>
      <point x="420" y="126" type="curve"/>
      <point x="420" y="420" type="line" smooth="yes"/>
      <point x="420" y="481"/>
      <point x="375" y="535"/>
      <point x="285" y="535" type="curve" smooth="yes"/>
      <point x="195" y="535"/>
      <point x="150" y="481"/>
      <point x="150" y="420" type="curve"/>
      <point x="50" y="420" type="line"/>
      <point x="50" y="535"/>
      <point x="140" y="620"/>
      <point x="285" y="620" type="curve" smooth="yes"/>
      <point x="430" y="620"/>
      <point x="520" y="535"/>
      <point x="520" y="420" type="curve" smooth="yes"/>
      <point x="520" y="60" type="line" smooth="yes"/>
      <point x="520" y="15"/>
      <point x="444" y="-10"/>
      <point x="400" y="-10" type="curve"/>
      <point x="389" y="89"/>
      <point x="361" y="177"/>
      <point x="325" y="236" type="curve"/>
      <point x="311" y="192"/>
      <point x="269" y="160"/>
      <point x="220" y="160" type="curve" smooth="yes"/>
      <point x="159" y="160"/>
      <point x="110" y="209"/>
      <point x="110" y="270" type="curve" smooth="yes"/>
      <point x="110" y="331"/>
      <point x="159" y="380"/>
      <point x="220" y="380" type="curve" smooth="yes"/>
      <point x="321" y="380"/>
      <point x="386" y="260"/>
    </contour>
    <contour>
      <point x="220" y="320" type="curve" smooth="yes"/>
      <point x="192" y="320"/>
      <point x="170" y="298"/>
      <point x="170" y="270" type="curve" smooth="yes"/>
      <point x="170" y="242"/>
      <point x="192" y="220"/>
      <point x="220" y="220" type="curve" smooth="yes"/>
      <point x="248" y="220"/>
      <point x="270" y="242"/>
      <point x="270" y="270" type="curve" smooth="yes"/>
      <point x="270" y="298"/>
      <point x="248" y="320"/>
    </contour>
  </outline>
</glyph>
<glyph name="uni0E09" format="1">
  <advance width="680"/>
  <unicode hex="0E09"/>
  <outline>
    <contour>
      <point x="381" y="106" type="curve"/>
      <point x="319" y="57"/>
      <point x="280" y="-10"/>
      <point x="280" y="-10" type="curve"/>
      <point x="217" y="-10"/>
      <point x="180" y="15"/>
      <point x="180" y="60" type="curve" smooth="yes"/>
      <point x="180" y="180" type="line"/>
      <point x="170" y="180" type="line" smooth="yes"/>
      <point x="115" y="180"/>
      <point x="70" y="225"/>
      <point x="70" y="280" type="curve" smooth="yes"/>
      <point x="70" y="335"/>
      <point x="115" y="380"/>
      <point x="170" y="380" type="curve" smooth="yes"/>
      <point x="225" y="380"/>
      <point x="270" y="335"/>
      <point x="270" y="280" type="curve" smooth="yes"/>
      <point x="270" y="76" type="line"/>
      <point x="310" y="133"/>
      <point x="386" y="197"/>
      <point x="470" y="212" type="curve"/>
      <point x="470" y="420" type="line" smooth="yes"/>
      <point x="470" y="481"/>
      <point x="420" y="535"/>
      <point x="330" y="535" type="curve" smooth="yes"/>
      <point x="240" y="535"/>
      <point x="190" y="481"/>
      <point x="190" y="420" type="curve"/>
      <point x="90" y="420" type="line"/>
      <point x="90" y="535"/>
      <point x="185" y="620"/>
      <point x="330" y="620" type="curve" smooth="yes"/>
      <point x="475" y="620"/>
      <point x="570" y="535"/>
      <point x="570" y="420" type="curve" smooth="yes"/>
      <point x="570" y="210" type="line"/>
      <point x="548" y="197" type="line"/>
      <point x="585" y="178"/>
      <point x="610" y="139"/>
      <point x="610" y="95" type="curve" smooth="yes"/>
      <point x="610" y="31"/>
      <point x="559" y="-20"/>
      <point x="495" y="-20" type="curve" smooth="yes"/>
      <point x="431" y="-20"/>
      <point x="380" y="31"/>
      <point x="380" y="95" type="curve" smooth="yes"/>
      <point x="380" y="99"/>
      <point x="380" y="102"/>
    </contour>
    <contour>
      <point x="170" y="325" type="curve" smooth="yes"/>
      <point x="145" y="325"/>
      <point x="125" y="305"/>
      <point x="125" y="280" type="curve" smooth="yes"/>
      <point x="125" y="255"/>
      <point x="145" y="235"/>
      <point x="170" y="235" type="curve" smooth="yes"/>
      <point x="195" y="235"/>
      <point x="215" y="255"/>
      <point x="215" y="280" type="curve" smooth="yes"/>
      <point x="215" y="305"/>
      <point x="195" y="325"/>
    </contour>
    <contour>
      <point x="495" y="145" type="curve" smooth="yes"/>
      <point x="467" y="145"/>
      <point x="445" y="123"/>
      <point x="445" y="95" type="curve" smooth="yes"/>
      <point x="445" y="67"/>
      <point x="467" y="45"/>
      <point x="495" y="45" type="curve" smooth="yes"/>
      <point x="523" y="45"/>
      <point x="545" y="67"/>
      <point x="545" y="95" type="curve" smooth="yes"/>
      <point x="545" y="123"/>
      <point x="523" y="145"/>
    </contour>
  </outline>
</glyph>
<glyph name="uni0E0B" format="1">
  <advance width="710"/>
  <unicode hex="0E0B"/>
  <outline>
    <contour>
      <point x="500" y="370" type="line" smooth="yes"/>
      <point x="500" y="390"/>
      <point x="461" y="414"/>
      <point x="428" y="430" type="curve"/>
      <point x="411" y="332"/>
      <point x="320" y="298"/>
      <point x="320" y="200" type="curve" smooth="yes"/>
      <point x="320" y="130" type="line" smooth="yes"/>
      <point x="320" y="97"/>
      <point x="355" y="65"/>
      <point x="410" y="65" type="curve" smooth="yes"/>
      <point x="465" y="65"/>
      <point x="500" y="97"/>
      <point x="500" y="130" type="curve" smooth="yes"/>
    </contour>
    <contour>
      <point x="180" y="610" type="curve" smooth="yes"/>
      <point x="222" y="610"/>
      <point x="253" y="583"/>
      <point x="272" y="552" type="curve"/>
      <point x="301" y="610" type="line"/>
      <point x="329" y="610" type="line"/>
      <point x="373" y="597"/>
      <point x="409" y="563"/>
      <point x="424" y="511" type="curve"/>
      <point x="472" y="582"/>
      <point x="559" y="650"/>
      <point x="680" y="650" type="curve"/>
      <point x="680" y="560" type="line"/>
      <point x="578" y="560"/>
      <point x="501" y="516"/>
      <point x="456" y="471" type="curve"/>
      <point x="503" y="454"/>
      <point x="600" y="414"/>
      <point x="600" y="370" type="curve" smooth="yes"/>
      <point x="600" y="130" type="line" smooth="yes"/>
      <point x="600" y="92"/>
      <point x="568" y="-20"/>
      <point x="410" y="-20" type="curve" smooth="yes"/>
      <point x="252" y="-20"/>
      <point x="220" y="92"/>
      <point x="220" y="130" type="curve" smooth="yes"/>
      <point x="220" y="200" type="line" smooth="yes"/>
      <point x="220" y="336"/>
      <point x="350" y="358"/>
      <point x="350" y="460" type="curve" smooth="yes"/>
      <point x="350" y="495"/>
      <point x="346" y="523"/>
      <point x="323" y="550" type="curve"/>
      <point x="290" y="490" type="line"/>
      <point x="240" y="490" type="line"/>
      <point x="233" y="522"/>
      <point x="213" y="555"/>
      <point x="180" y="555" type="curve" smooth="yes"/>
      <point x="137" y="555"/>
      <point x="118" y="516"/>
      <point x="115" y="470" type="curve"/>
      <point x="130" y="482"/>
      <point x="149" y="490"/>
      <point x="170" y="490" type="curve" smooth="yes"/>
      <point x="217" y="490"/>
      <point x="255" y="452"/>
      <point x="255" y="405" type="curve" smooth="yes"/>
      <point x="255" y="358"/>
      <point x="217" y="320"/>
      <point x="170" y="320" type="curve" smooth="yes"/>
      <point x="99" y="320"/>
      <point x="60" y="382"/>
      <point x="60" y="460" type="curve" smooth="yes"/>
      <point x="60" y="513"/>
      <point x="92" y="610"/>
    </contour>
    <contour>
      <point x="170" y="450" type="curve" smooth="yes"/>
      <point x="145" y="450"/>
      <point x="125" y="430"/>
      <point x="125" y="405" type="curve" smooth="yes"/>
      <point x="125" y="380"/>
      <point x="145" y="360"/>
      <point x="170" y="360" type="curve" smooth="yes"/>
      <point x="195" y="360"/>
      <point x="215" y="380"/>
      <point x="215" y="405" type="curve" smooth="yes"/>
      <point x="215" y="430"/>
      <point x="195" y="450"/>
    </contour>
  </outline>
</glyph>
<glyph name="uni0E0C" format="1">
  <advance width="940"/>
  <unicode hex="0E0C"/>
  <outline>
    <contour>
      <point x="525" y="145" type="curve" smooth="yes"/>
      <point x="497" y="145"/>
      <point x="475" y="123"/>
      <point x="475" y="95" type="curve" smooth="yes"/>
      <point x="475" y="67"/>
      <point x="497" y="45"/>
      <point x="525" y="45" type="curve" smooth="yes"/>
      <point x="553" y="45"/>
      <point x="575" y="67"/>
      <point x="575" y="95" type="curve" smooth="yes"/>
      <point x="575" y="123"/>
      <point x="553" y="145"/>
    </contour>
    <contour>
      <point x="240" y="150" type="curve" smooth="yes"/>
      <point x="212" y="150"/>
      <point x="190" y="128"/>
      <point x="190" y="100" type="curve" smooth="yes"/>
      <point x="190" y="72"/>
      <point x="212" y="50"/>
      <point x="240" y="50" type="curve" smooth="yes"/>
      <point x="268" y="50"/>
      <point x="290" y="72"/>
      <point x="290" y="100" type="curve" smooth="yes"/>
      <point x="290" y="128"/>
      <point x="268" y="150"/>
    </contour>
    <contour>
      <point x="240" y="210" type="line" smooth="yes"/>
      <point x="301" y="210"/>
      <point x="350" y="161"/>
      <point x="350" y="100" type="curve" smooth="yes"/>
      <point x="350" y="39"/>
      <point x="301" y="-10"/>
      <point x="240" y="-10" type="curve" smooth="yes"/>
      <point x="179" y="-10"/>
      <point x="130" y="39"/>
      <point x="130" y="100" type="curve" smooth="yes"/>
      <point x="130" y="290" type="line" smooth="yes"/>
      <point x="130" y="350"/>
      <point x="155" y="380"/>
      <point x="179" y="395" type="curve"/>
      <point x="80" y="420" type="line"/>
      <point x="88" y="474"/>
      <point x="164" y="620"/>
      <point x="340" y="620" type="curve" smooth="yes"/>
      <point x="481" y="620"/>
      <point x="580" y="535"/>
      <point x="580" y="400" type="curve" smooth="yes"/>
      <point x="580" y="205" type="line"/>
      <point x="657" y="190"/>
      <point x="710" y="140"/>
      <point x="740" y="92" type="curve"/>
      <point x="740" y="600" type="line"/>
      <point x="840" y="600" type="line"/>
      <point x="840" y="60" type="line" smooth="yes"/>
      <point x="840" y="15"/>
      <point x="784" y="-10"/>
      <point x="730" y="-10" type="curve"/>
      <point x="730" y="-10"/>
      <point x="708" y="73"/>
      <point x="637" y="119" type="curve"/>
      <point x="639" y="111"/>
      <point x="640" y="103"/>
      <point x="640" y="95" type="curve" smooth="yes"/>
      <point x="640" y="31"/>
      <point x="589" y="-20"/>
      <point x="525" y="-20" type="curve" smooth="yes"/>
      <point x="461" y="-20"/>
      <point x="410" y="31"/>
      <point x="410" y="95" type="curve" smooth="yes"/>
      <point x="410" y="143"/>
      <point x="439" y="183"/>
      <point x="480" y="201" type="curve"/>
      <point x="480" y="400" type="line" smooth="yes"/>
      <point x="480" y="482"/>
      <point x="426" y="535"/>
      <point x="340" y="535" type="curve" smooth="yes"/>
      <point x="270" y="535"/>
      <point x="210" y="501"/>
      <point x="186" y="447" type="curve"/>
      <point x="310" y="420" type="line"/>
      <point x="310" y="400" type="line"/>
      <point x="310" y="400"/>
      <point x="230" y="396"/>
      <point x="230" y="290" type="curve" smooth="yes"/>
      <point x="230" y="210" type="line"/>
    </contour>
  </outline>
</glyph>
<glyph name="uni0E12" format="1">
  <advance width="940"/>
  <unicode hex="0E12"/>
  <outline>
    <contour>
      <point x="525" y="145" type="curve" smooth="yes"/>
      <point x="497" y="145"/>
      <point x="475" y="123"/>
      <point x="475" y="95" type="curve" smooth="yes"/>
      <point x="475" y="67"/>
      <point x="497" y="45"/>
      <point x="525" y="45" type="curve" smooth="yes"/>
      <point x="553" y="45"/>
      <point x="575" y="67"/>
      <point x="575" y="95" type="curve" smooth="yes"/>
      <point x="575" y="123"/>
      <point x="553" y="145"/>
    </contour>
    <contour>
      <point x="330" y="365" type="curve" smooth="yes"/>
      <point x="305" y="365"/>
      <point x="285" y="345"/>
      <point x="285" y="320" type="curve" smooth="yes"/>
      <point x="285" y="295"/>
      <point x="305" y="275"/>
      <point x="330" y="275" type="curve" smooth="yes"/>
      <point x="355" y="275"/>
      <point x="375" y="295"/>
      <point x="375" y="320" type="curve" smooth="yes"/>
      <point x="375" y="345"/>
      <point x="355" y="365"/>
    </contour>
    <contour>
      <point x="330" y="410" type="curve" smooth="yes"/>
      <point x="380" y="410"/>
      <point x="420" y="370"/>
      <point x="420" y="320" type="curve" smooth="yes"/>
      <point x="420" y="171"/>
      <point x="210" y="107"/>
      <point x="210" y="-10" type="curve"/>
      <point x="210" y="-10"/>
      <point x="91" y="-6"/>
      <point x="90" y="30" type="curve"/>
      <point x="90" y="30"/>
      <point x="110" y="79"/>
      <point x="110" y="140" type="curve" smooth="yes"/>
      <point x="110" y="242"/>
      <point x="80" y="285"/>
      <point x="80" y="420" type="curve" smooth="yes"/>
      <point x="80" y="554"/>
      <point x="186" y="620"/>
      <point x="245" y="620" type="curve"/>
      <point x="330" y="550" type="line"/>
      <point x="415" y="620" type="line"/>
      <point x="474" y="620"/>
      <point x="580" y="554"/>
      <point x="580" y="420" type="curve" smooth="yes"/>
      <point x="580" y="205" type="line"/>
      <point x="657" y="190"/>
      <point x="710" y="140"/>
      <point x="740" y="92" type="curve"/>
      <point x="740" y="600" type="line"/>
      <point x="840" y="600" type="line"/>
      <point x="840" y="60" type="line" smooth="yes"/>
      <point x="840" y="15"/>
      <point x="784" y="-10"/>
      <point x="730" y="-10" type="curve"/>
      <point x="730" y="-10"/>
      <point x="708" y="73"/>
      <point x="637" y="119" type="curve"/>
      <point x="639" y="111"/>
      <point x="640" y="103"/>
      <point x="640" y="95" type="curve" smooth="yes"/>
      <point x="640" y="31"/>
      <point x="589" y="-20"/>
      <point x="525" y="-20" type="curve" smooth="yes"/>
      <point x="461" y="-20"/>
      <point x="410" y="31"/>
      <point x="410" y="95" type="curve" smooth="yes"/>
      <point x="410" y="143"/>
      <point x="439" y="183"/>
      <point x="480" y="201" type="curve"/>
      <point x="480" y="420" type="line" smooth="yes"/>
      <point x="480" y="505"/>
      <point x="425" y="530"/>
      <point x="425" y="530" type="curve"/>
      <point x="330" y="460" type="line"/>
      <point x="235" y="530" type="line"/>
      <point x="235" y="530"/>
      <point x="180" y="505"/>
      <point x="180" y="420" type="curve" smooth="yes"/>
      <point x="180" y="289"/>
      <point x="210" y="237"/>
      <point x="210" y="130" type="curve" smooth="yes"/>
      <point x="210" y="120" type="line"/>
      <point x="246" y="160"/>
      <point x="296" y="190"/>
      <point x="330" y="230" type="curve"/>
      <point x="280" y="230"/>
      <point x="240" y="270"/>
      <point x="240" y="320" type="curve" smooth="yes"/>
      <point x="240" y="370"/>
      <point x="280" y="410"/>
    </contour>
  </outline>
</glyph>
<glyph name="uni0E14" format="1">
  <advance width="690"/>
  <unicode hex="0E14"/>
  <outline>
    <contour>
      <point x="340" y="410" type="curve" smooth="yes"/>
      <point x="390" y="410"/>
      <point x="430" y="370"/>
      <point x="430" y="320" type="curve" smooth="yes"/>
      <point x="430" y="171"/>
      <point x="210" y="107"/>
      <point x="210" y="-10" type="curve"/>
      <point x="210" y="-10"/>
      <point x="91" y="-6"/>
      <point x="90" y="30" type="curve"/>
      <point x="90" y="30"/>
      <point x="110" y="79"/>
      <point x="110" y="140" type="curve" smooth="yes"/>
      <point x="110" y="242"/>
      <point x="80" y="265"/>
      <point x="80" y="400" type="curve" smooth="yes"/>
      <point x="80" y="537"/>
      <point x="194" y="620"/>
      <point x="340" y="620" type="curve" smooth="yes"/>
      <point x="486" y="620"/>
      <point x="600" y="537"/>
      <point x="600" y="400" type="curve" smooth="yes"/>
      <point x="600" y="0" type="line"/>
      <point x="500" y="0" type="line"/>
      <point x="500" y="400" type="line" smooth="yes"/>
      <point x="500" y="482"/>
      <point x="431" y="535"/>
      <point x="340" y="535" type="curve" smooth="yes"/>
      <point x="249" y="535"/>
      <point x="180" y="482"/>
      <point x="180" y="400" type="curve" smooth="yes"/>
      <point x="180" y="269"/>
      <point x="210" y="237"/>
      <point x="210" y="130" type="curve" smooth="yes"/>
      <point x="210" y="120" type="line"/>
      <point x="246" y="160"/>
      <point x="306" y="190"/>
      <point x="340" y="230" type="curve"/>
      <point x="290" y="230"/>
      <point x="250" y="270"/>
      <point x="250" y="320" type="curve" smooth="yes"/>
      <point x="250" y="370"/>
      <point x="290" y="410"/>
    </contour>
    <contour>
      <point x="340" y="365" type="curve" smooth="yes"/>
      <point x="315" y="365"/>
      <point x="295" y="345"/>
      <point x="295" y="320" type="curve" smooth="yes"/>
      <point x="295" y="295"/>
      <point x="315" y="275"/>
      <point x="340" y="275" type="curve" smooth="yes"/>
      <point x="365" y="275"/>
      <point x="385" y="295"/>
      <point x="385" y="320" type="curve" smooth="yes"/>
      <point x="385" y="345"/>
      <point x="365" y="365"/>
    </contour>
  </outline>
</glyph>
<glyph name="uni0E17" format="1">
  <advance width="690"/>
  <unicode hex="0E17"/>
  <outline>
    <contour>
      <point x="170" y="390" type="line"/>
      <point x="160" y="390" type="line" smooth="yes"/>
      <point x="99" y="390"/>
      <point x="50" y="439"/>
      <point x="50" y="500" type="curve" smooth="yes"/>
      <point x="50" y="561"/>
      <point x="99" y="610"/>
      <point x="160" y="610" type="curve" smooth="yes"/>
      <point x="221" y="610"/>
      <point x="270" y="561"/>
      <point x="270" y="500" type="curve" smooth="yes"/>
      <point x="270" y="340" type="line"/>
      <point x="278" y="368"/>
      <point x="327" y="610"/>
      <point x="455" y="610" type="curve" smooth="yes"/>
      <point x="533" y="610"/>
      <point x="600" y="562"/>
      <point x="600" y="410" type="curve" smooth="yes"/>
      <point x="600" y="0" type="line"/>
      <point x="500" y="0" type="line"/>
      <point x="500" y="410" type="line" smooth="yes"/>
      <point x="500" y="471"/>
      <point x="491" y="510"/>
      <point x="445" y="510" type="curve" smooth="yes"/>
      <point x="362" y="510"/>
      <point x="302" y="268"/>
      <point x="280" y="180" type="curve"/>
      <point x="280" y="0" type="line"/>
      <point x="170" y="0" type="line"/>
    </contour>
    <contour>
      <point x="160" y="550" type="curve" smooth="yes"/>
      <point x="132" y="550"/>
      <point x="110" y="528"/>
      <point x="110" y="500" type="curve" smooth="yes"/>
      <point x="110" y="472"/>
      <point x="132" y="450"/>
      <point x="160" y="450" type="curve" smooth="yes"/>
      <point x="188" y="450"/>
      <point x="210" y="472"/>
      <point x="210" y="500" type="curve" smooth="yes"/>
      <point x="210" y="528"/>
      <point x="188" y="550"/>
    </contour>
  </outline>
</glyph>
<glyph name="uni0E19" format="1">
  <advance width="690"/>
  <unicode hex="0E19"/>
  <outline>
    <contour>
      <point x="280" y="-10" type="curve"/>
      <point x="217" y="-10"/>
      <point x="170" y="15"/>
      <point x="170" y="60" type="curve" smooth="yes"/>
      <point x="170" y="390" type="line"/>
      <point x="160" y="390" type="line" smooth="yes"/>
      <point x="99" y="390"/>
      <point x="50" y="439"/>
      <point x="50" y="500" type="curve" smooth="yes"/>
      <point x="50" y="561"/>
      <point x="99" y="610"/>
      <point x="160" y="610" type="curve" smooth="yes"/>
      <point x="221" y="610"/>
      <point x="270" y="561"/>
      <point x="270" y="500" type="curve" smooth="yes"/>
      <point x="270" y="84" type="line"/>
      <point x="317" y="138"/>
      <point x="397" y="196"/>
      <point x="470" y="211" type="curve"/>
      <point x="470" y="600" type="line"/>
      <point x="570" y="600" type="line"/>
      <point x="570" y="210" type="line"/>
      <point x="548" y="197" type="line"/>
      <point x="585" y="178"/>
      <point x="610" y="139"/>
      <point x="610" y="95" type="curve" smooth="yes"/>
      <point x="610" y="31"/>
      <point x="559" y="-20"/>
      <point x="495" y="-20" type="curve" smooth="yes"/>
      <point x="432" y="-20"/>
      <point x="382" y="30"/>
      <point x="380" y="92" type="curve"/>
      <point x="320" y="48"/>
      <point x="280" y="-10"/>
    </contour>
    <contour>
      <point x="160" y="550" type="curve" smooth="yes"/>
      <point x="132" y="550"/>
      <point x="110" y="528"/>
      <point x="110" y="500" type="curve" smooth="yes"/>
      <point x="110" y="472"/>
      <point x="132" y="450"/>
      <point x="160" y="450" type="curve" smooth="yes"/>
      <point x="188" y="450"/>
      <point x="210" y="472"/>
      <point x="210" y="500" type="curve" smooth="yes"/>
      <point x="210" y="528"/>
      <point x="188" y="550"/>
    </contour>
    <contour>
      <point x="495" y="145" type="curve" smooth="yes"/>
      <point x="467" y="145"/>
      <point x="445" y="123"/>
      <point x="445" y="95" type="curve" smooth="yes"/>
      <point x="445" y="67"/>
      <point x="467" y="45"/>
      <point x="495" y="45" type="curve" smooth="yes"/>
      <point x="523" y="45"/>
      <point x="545" y="67"/>
      <point x="545" y="95" type="curve" smooth="yes"/>
      <point x="545" y="123"/>
      <point x="523" y="145"/>
    </contour>
  </outline>
</glyph>
<glyph name="uni0E1B" format="1">
  <advance width="740"/>
  <unicode hex="0E1B"/>
  <outline>
    <contour>
      <point x="160" y="550" type="curve" smooth="yes"/>
      <point x="132" y="550"/>
      <point x="110" y="528"/>
      <point x="110" y="500" type="curve" smooth="yes"/>
      <point x="110" y="472"/>
      <point x="132" y="450"/>
      <point x="160" y="450" type="curve" smooth="yes"/>
      <point x="188" y="450"/>
      <point x="210" y="472"/>
      <point x="210" y="500" type="curve" smooth="yes"/>
      <point x="210" y="528"/>
      <point x="188" y="550"/>
    </contour>
    <contour>
      <point x="160" y="610" type="curve" smooth="yes"/>
      <point x="221" y="610"/>
      <point x="270" y="561"/>
      <point x="270" y="500" type="curve" smooth="yes"/>
      <point x="270" y="170" type="line" smooth="yes"/>
      <point x="270" y="105"/>
      <point x="331" y="70"/>
      <point x="410" y="70" type="curve" smooth="yes"/>
      <point x="489" y="70"/>
      <point x="550" y="105"/>
      <point x="550" y="170" type="curve" smooth="yes"/>
      <point x="550" y="840" type="line"/>
      <point x="650" y="840" type="line"/>
      <point x="650" y="170" type="line" smooth="yes"/>
      <point x="650" y="34"/>
      <point x="542" y="-20"/>
      <point x="410" y="-20" type="curve" smooth="yes"/>
      <point x="278" y="-20"/>
      <point x="170" y="34"/>
      <point x="170" y="170" type="curve" smooth="yes"/>
      <point x="170" y="390" type="line"/>
      <point x="160" y="390" type="line" smooth="yes"/>
      <point x="99" y="390"/>
      <point x="50" y="439"/>
      <point x="50" y="500" type="curve" smooth="yes"/>
      <point x="50" y="561"/>
      <point x="99" y="610"/>
    </contour>
  </outline>
</glyph>
<glyph name="uni0E1D" format="1">
  <advance width="780"/>
  <unicode hex="0E1D"/>
  <outline>
    <contour>
      <point x="230" y="610" type="curve" smooth="yes"/>
      <point x="301" y="610"/>
      <point x="340" y="557"/>
      <point x="340" y="500" type="curve" smooth="yes"/>
      <point x="340" y="445"/>
      <point x="295" y="400"/>
      <point x="240" y="400" type="curve" smooth="yes"/>
      <point x="222" y="400"/>
      <point x="205" y="405"/>
      <point x="190" y="413" type="curve"/>
      <point x="190" y="110" type="line" smooth="yes"/>
      <point x="190" y="87"/>
      <point x="194" y="74"/>
      <point x="204" y="68" type="curve"/>
      <point x="335" y="310" type="line"/>
      <point x="425" y="310" type="line"/>
      <point x="556" y="68" type="line"/>
      <point x="566" y="74"/>
      <point x="570" y="87"/>
      <point x="570" y="110" type="curve" smooth="yes"/>
      <point x="570" y="840" type="line"/>
      <point x="670" y="840" type="line"/>
      <point x="670" y="110" type="line" smooth="yes"/>
      <point x="670" y="70"/>
      <point x="667" y="40"/>
      <point x="644" y="20" type="curve" smooth="yes"/>
      <point x="622" y="0"/>
      <point x="579" y="-10"/>
      <point x="500" y="-10" type="curve"/>
      <point x="380" y="217" type="line"/>
      <point x="260" y="-10" type="line"/>
      <point x="181" y="-10"/>
      <point x="138" y="0"/>
      <point x="116" y="20" type="curve" smooth="yes"/>
      <point x="93" y="40"/>
      <point x="90" y="70"/>
      <point x="90" y="110" type="curve" smooth="yes"/>
      <point x="90" y="440" type="line" smooth="yes"/>
      <point x="90" y="543"/>
      <point x="144" y="610"/>
    </contour>
    <contour>
      <point x="240" y="550" type="curve" smooth="yes"/>
      <point x="212" y="550"/>
      <point x="190" y="528"/>
      <point x="190" y="500" type="curve" smooth="yes"/>
      <point x="190" y="472"/>
      <point x="212" y="450"/>
      <point x="240" y="450" type="curve" smooth="yes"/>
      <point x="268" y="450"/>
      <point x="290" y="472"/>
      <point x="290" y="500" type="curve" smooth="yes"/>
      <point x="290" y="528"/>
      <point x="268" y="550"/>
    </contour>
  </outline>
</glyph>
<glyph name="uni0E1F" format="1">
  <advance width="790"/>
  <unicode hex="0E1F"/>
  <outline>
    <contour>
      <point x="170" y="550" type="curve" smooth="yes"/>
      <point x="142" y="550"/>
      <point x="120" y="528"/>
      <point x="120" y="500" type="curve" smooth="yes"/>
      <point x="120" y="472"/>
      <point x="142" y="450"/>
      <point x="170" y="450" type="curve" smooth="yes"/>
      <point x="198" y="450"/>
      <point x="220" y="472"/>
      <point x="220" y="500" type="curve" smooth="yes"/>
      <point x="220" y="528"/>
      <point x="198" y="550"/>
    </contour>
    <contour>
      <point x="170" y="610" type="curve" smooth="yes"/>
      <point x="231" y="610"/>
      <point x="280" y="561"/>
      <point x="280" y="500" type="curve" smooth="yes"/>
      <point x="280" y="80" type="line"/>
      <point x="399" y="490" type="line"/>
      <point x="461" y="490" type="line"/>
      <point x="580" y="80" type="line"/>
      <point x="580" y="840" type="line"/>
      <point x="680" y="840" type="line"/>
      <point x="680" y="60" type="line" smooth="yes"/>
      <point x="680" y="37"/>
      <point x="667" y="17"/>
      <point x="640" y="5" type="curve" smooth="yes"/>
      <point x="613" y="-7"/>
      <point x="571" y="-10"/>
      <point x="540" y="-10" type="curve"/>
      <point x="430" y="380" type="line"/>
      <point x="320" y="-10" type="line"/>
      <point x="289" y="-10"/>
      <point x="247" y="-7"/>
      <point x="220" y="5" type="curve" smooth="yes"/>
      <point x="193" y="17"/>
      <point x="180" y="37"/>
      <point x="180" y="60" type="curve" smooth="yes"/>
      <point x="180" y="390" type="line"/>
      <point x="170" y="390" type="line" smooth="yes"/>
      <point x="109" y="390"/>
      <point x="60" y="439"/>
      <point x="60" y="500" type="curve" smooth="yes"/>
      <point x="60" y="561"/>
      <point x="109" y="610"/>
    </contour>
  </outline>
</glyph>
<glyph name="uni0E27" format="1">
  <advance width="570"/>
  <unicode hex="0E27"/>
  <outline>
    <contour>
      <point x="370" y="228" type="curve"/>
      <point x="370" y="420" type="line" smooth="yes"/>
      <point x="370" y="476"/>
      <point x="334" y="535"/>
      <point x="250" y="535" type="curve" smooth="yes"/>
      <point x="166" y="535"/>
      <point x="130" y="476"/>
      <point x="130" y="420" type="curve"/>
      <point x="30" y="420" type="line"/>
      <point x="30" y="535"/>
      <point x="117" y="620"/>
      <point x="250" y="620" type="curve" smooth="yes"/>
      <point x="383" y="620"/>
      <point x="470" y="535"/>
      <point x="470" y="420" type="curve" smooth="yes"/>
      <point x="470" y="110" type="line" smooth="yes"/>
      <point x="470" y="44"/>
      <point x="416" y="-10"/>
      <point x="350" y="-10" type="curve" smooth="yes"/>
      <point x="284" y="-10"/>
      <point x="230" y="44"/>
      <point x="230" y="110" type="curve" smooth="yes"/>
      <point x="230" y="176"/>
      <point x="284" y="230"/>
      <point x="350" y="230" type="curve" smooth="yes"/>
      <point x="357" y="230"/>
      <point x="363" y="229"/>
    </contour>
    <contour>
      <point x="350" y="165" type="curve" smooth="yes"/>
      <point x="320" y="165"/>
      <point x="295" y="140"/>
      <point x="295" y="110" type="curve" smooth="yes"/>
      <point x="295" y="80"/>
      <point x="320" y="55"/>
      <point x="350" y="55" type="curve" smooth="yes"/>
      <point x="380" y="55"/>
      <point x="405" y="80"/>
      <point x="405" y="110" type="curve" smooth="yes"/>
      <point x="405" y="140"/>
      <point x="380" y="165"/>
    </contour>
  </outline>
</glyph>
<glyph name="uni0E28" format="1">
  <advance width="710"/>
  <unicode hex="0E28"/>
  <outline>
    <contour>
      <point x="340" y="365" type="curve" smooth="yes"/>
      <point x="315" y="365"/>
      <point x="295" y="345"/>
      <point x="295" y="320" type="curve" smooth="yes"/>
      <point x="295" y="295"/>
      <point x="315" y="275"/>
      <point x="340" y="275" type="curve" smooth="yes"/>
      <point x="365" y="275"/>
      <point x="385" y="295"/>
      <point x="385" y="320" type="curve" smooth="yes"/>
      <point x="385" y="345"/>
      <point x="365" y="365"/>
    </contour>
    <contour>
      <point x="340" y="410" type="curve" smooth="yes"/>
      <point x="390" y="410"/>
      <point x="430" y="370"/>
      <point x="430" y="320" type="curve" smooth="yes"/>
      <point x="430" y="270"/>
      <point x="390" y="230"/>
      <point x="340" y="230" type="curve" smooth="yes"/>
      <point x="301" y="230"/>
      <point x="268" y="255"/>
      <point x="255" y="289" type="curve"/>
      <point x="231" y="243"/>
      <point x="210" y="179"/>
      <point x="210" y="120" type="curve" smooth="yes"/>
      <point x="210" y="-10" type="line"/>
      <point x="210" y="-10"/>
      <point x="91" y="-6"/>
      <point x="90" y="30" type="curve"/>
      <point x="90" y="30"/>
      <point x="110" y="79"/>
      <point x="110" y="140" type="curve" smooth="yes"/>
      <point x="110" y="242"/>
      <point x="80" y="265"/>
      <point x="80" y="400" type="curve" smooth="yes"/>
      <point x="80" y="537"/>
      <point x="194" y="620"/>
      <point x="340" y="620" type="curve" smooth="yes"/>
      <point x="403" y="620"/>
      <point x="469" y="604"/>
      <point x="511" y="576" type="curve"/>
      <point x="543" y="624"/>
      <point x="607" y="670"/>
      <point x="680" y="670" type="curve"/>
      <point x="680" y="580" type="line"/>
      <point x="627" y="580"/>
      <point x="584" y="559"/>
      <point x="560" y="529" type="curve"/>
      <point x="586" y="494"/>
      <point x="600" y="451"/>
      <point x="600" y="400" type="curve" smooth="yes"/>
      <point x="600" y="0" type="line"/>
      <point x="500" y="0" type="line"/>
      <point x="500" y="400" type="line" smooth="yes"/>
      <point x="500" y="482"/>
      <point x="431" y="535"/>
      <point x="340" y="535" type="curve" smooth="yes"/>
      <point x="249" y="535"/>
      <point x="180" y="482"/>
      <point x="180" y="400" type="curve" smooth="yes"/>
      <point x="180" y="343"/>
      <point x="186" y="305"/>
      <point x="192" y="271" type="curve"/>
      <point x="212" y="346"/>
      <point x="268" y="410"/>
    </contour>
  </outline>
</glyph>
<glyph name="uni0E2A" format="1">
  <advance width="690"/>
  <unicode hex="0E2A"/>
  <outline>
    <contour>
      <point x="220" y="135" type="curve" smooth="yes"/>
      <point x="192" y="135"/>
      <point x="170" y="113"/>
      <point x="170" y="85" type="curve" smooth="yes"/>
      <point x="170" y="57"/>
      <point x="192" y="35"/>
      <point x="220" y="35" type="curve" smooth="yes"/>
      <point x="248" y="35"/>
      <point x="270" y="57"/>
      <point x="270" y="85" type="curve" smooth="yes"/>
      <point x="270" y="113"/>
      <point x="248" y="135"/>
    </contour>
    <contour>
      <point x="220" y="190" type="curve" smooth="yes"/>
      <point x="278" y="190"/>
      <point x="325" y="143"/>
      <point x="325" y="85" type="curve" smooth="yes"/>
      <point x="325" y="27"/>
      <point x="278" y="-20"/>
      <point x="220" y="-20" type="curve" smooth="yes"/>
      <point x="147" y="-20"/>
      <point x="70" y="48"/>
      <point x="70" y="180" type="curve" smooth="yes"/>
      <point x="70" y="300"/>
      <point x="165" y="380"/>
      <point x="290" y="380" type="curve" smooth="yes"/>
      <point x="376" y="380"/>
      <point x="447" y="338"/>
      <point x="480" y="281" type="curve"/>
      <point x="480" y="420" type="line" smooth="yes"/>
      <point x="480" y="481"/>
      <point x="428" y="535"/>
      <point x="330" y="535" type="curve" smooth="yes"/>
      <point x="232" y="535"/>
      <point x="180" y="481"/>
      <point x="180" y="420" type="curve"/>
      <point x="80" y="420" type="line"/>
      <point x="80" y="535"/>
      <point x="179" y="620"/>
      <point x="330" y="620" type="curve" smooth="yes"/>
      <point x="393" y="620"/>
      <point x="455" y="605"/>
      <point x="494" y="580" type="curve"/>
      <point x="527" y="627"/>
      <point x="589" y="670"/>
      <point x="660" y="670" type="curve"/>
      <point x="660" y="580" type="line"/>
      <point x="609" y="580"/>
      <point x="568" y="561"/>
      <point x="544" y="533" type="curve"/>
      <point x="568" y="502"/>
      <point x="580" y="463"/>
      <point x="580" y="420" type="curve" smooth="yes"/>
      <point x="580" y="30" type="line" smooth="yes"/>
      <point x="580" y="-6"/>
      <point x="470" y="-10"/>
      <point x="470" y="-10" type="curve"/>
      <point x="470" y="170" type="line" smooth="yes"/>
      <point x="470" y="238"/>
      <point x="411" y="310"/>
      <point x="310" y="310" type="curve" smooth="yes"/>
      <point x="227" y="310"/>
      <point x="160" y="261"/>
      <point x="160" y="180" type="curve" smooth="yes"/>
      <point x="160" y="171" type="line"/>
      <point x="177" y="183"/>
      <point x="198" y="190"/>
    </contour>
  </outline>
</glyph>
<glyph name="uni0E2D" format="1">
  <advance width="680"/>
  <unicode hex="0E2D"/>
  <outline>
    <contour>
      <point x="195" y="380" type="curve" smooth="yes"/>
      <point x="253" y="380"/>
      <point x="300" y="333"/>
      <point x="300" y="275" type="curve" smooth="yes"/>
      <point x="300" y="217"/>
      <point x="253" y="170"/>
      <point x="195" y="170" type="curve" smooth="yes"/>
      <point x="190" y="170" type="line"/>
      <point x="190" y="160" type="line" smooth="yes"/>
      <point x="190" y="95"/>
      <point x="256" y="70"/>
      <point x="335" y="70" type="curve" smooth="yes"/>
      <point x="414" y="70"/>
      <point x="480" y="105"/>
      <point x="480" y="170" type="curve" smooth="yes"/>
      <point x="480" y="420" type="line" smooth="yes"/>
      <point x="480" y="481"/>
      <point x="423" y="535"/>
      <point x="325" y="535" type="curve" smooth="yes"/>
      <point x="227" y="535"/>
      <point x="170" y="481"/>
      <point x="170" y="420" type="curve"/>
      <point x="70" y="420" type="line"/>
      <point x="70" y="535"/>
      <point x="174" y="620"/>
      <point x="325" y="620" type="curve" smooth="yes"/>
      <point x="476" y="620"/>
      <point x="580" y="535"/>
      <point x="580" y="420" type="curve" smooth="yes"/>
      <point x="580" y="170" type="line" smooth="yes"/>
      <point x="580" y="34"/>
      <point x="467" y="-20"/>
      <point x="335" y="-20" type="curve" smooth="yes"/>
      <point x="203" y="-20"/>
      <point x="90" y="24"/>
      <point x="90" y="160" type="curve" smooth="yes"/>
      <point x="90" y="275" type="line" smooth="yes"/>
      <point x="90" y="333"/>
      <point x="137" y="380"/>
    </contour>
    <contour>
      <point x="195" y="325" type="curve" smooth="yes"/>
      <point x="167" y="325"/>
      <point x="145" y="303"/>
      <point x="145" y="275" type="curve" smooth="yes"/>
      <point x="145" y="247"/>
      <point x="167" y="225"/>
      <point x="195" y="225" type="curve" smooth="yes"/>
      <point x="223" y="225"/>
      <point x="245" y="247"/>
      <point x="245" y="275" type="curve" smooth="yes"/>
      <point x="245" y="303"/>
      <point x="223" y="325"/>
    </contour>
  </outline>
</glyph>
<glyph name="uni0E2F" format="1">
  <advance width="560"/>
  <unicode hex="0E2F"/>
  <outline>
    <contour>
      <point x="135" y="600" type="curve" smooth="yes"/>
      <point x="182" y="600"/>
      <point x="220" y="562"/>
      <point x="220" y="515" type="curve" smooth="yes"/>
      <point x="220" y="480"/>
      <point x="199" y="450"/>
      <point x="169" y="437" type="curve"/>
      <point x="186" y="428"/>
      <point x="211" y="425"/>
      <point x="245" y="425" type="curve" smooth="yes"/>
      <point x="332" y="425"/>
      <point x="390" y="484"/>
      <point x="390" y="580" type="curve"/>
      <point x="450" y="580" type="line"/>
      <point x="470" y="580" type="line"/>
      <point x="470" y="170" type="line" smooth="yes"/>
      <point x="470" y="53"/>
      <point x="387" y="-20"/>
      <point x="240" y="-20" type="curve"/>
      <point x="240" y="70" type="line"/>
      <point x="301" y="70"/>
      <point x="370" y="92"/>
      <point x="370" y="170" type="curve" smooth="yes"/>
      <point x="370" y="400" type="line"/>
      <point x="338" y="375"/>
      <point x="296" y="360"/>
      <point x="245" y="360" type="curve" smooth="yes"/>
      <point x="155" y="360"/>
      <point x="50" y="409"/>
      <point x="50" y="515" type="curve" smooth="yes"/>
      <point x="50" y="562"/>
      <point x="88" y="600"/>
    </contour>
    <contour>
      <point x="135" y="555" type="curve" smooth="yes"/>
      <point x="113" y="555"/>
      <point x="95" y="537"/>
      <point x="95" y="515" type="curve" smooth="yes"/>
      <point x="95" y="493"/>
      <point x="113" y="475"/>
      <point x="135" y="475" type="curve" smooth="yes"/>
      <point x="157" y="475"/>
      <point x="175" y="493"/>
      <point x="175" y="515" type="curve" smooth="yes"/>
      <point x="175" y="537"/>
      <point x="157" y="555"/>
    </contour>
  </outline>
</glyph>
<glyph name="uni0E30" format="1">
  <advance width="540"/>
  <unicode hex="0E30"/>
  <outline>
    <contour>
      <point x="145" y="580" type="curve" smooth="yes"/>
      <point x="192" y="580"/>
      <point x="230" y="542"/>
      <point x="230" y="495" type="curve" smooth="yes"/>
      <point x="230" y="460"/>
      <point x="209" y="430"/>
      <point x="179" y="417" type="curve"/>
      <point x="197" y="409"/>
      <point x="219" y="405"/>
      <point x="245" y="405" type="curve" smooth="yes"/>
      <point x="332" y="405"/>
      <point x="385" y="479"/>
      <point x="385" y="560" type="curve"/>
      <point x="470" y="560" type="line"/>
      <point x="470" y="444"/>
      <point x="402" y="340"/>
      <point x="245" y="340" type="curve" smooth="yes"/>
      <point x="143" y="340"/>
      <point x="60" y="394"/>
      <point x="60" y="495" type="curve" smooth="yes"/>
      <point x="60" y="542"/>
      <point x="98" y="580"/>
    </contour>
    <contour>
      <point x="145" y="535" type="curve" smooth="yes"/>
      <point x="123" y="535"/>
      <point x="105" y="517"/>
      <point x="105" y="495" type="curve" smooth="yes"/>
      <point x="105" y="473"/>
      <point x="123" y="455"/>
      <point x="145" y="455" type="curve" smooth="yes"/>
      <point x="167" y="455"/>
      <point x="185" y="473"/>
      <point x="185" y="495" type="curve" smooth="yes"/>
      <point x="185" y="517"/>
      <point x="167" y="535"/>
    </contour>
    <contour>
      <point x="145" y="270" type="curve" smooth="yes"/>
      <point x="192" y="270"/>
      <point x="230" y="232"/>
      <point x="230" y="185" type="curve" smooth="yes"/>
      <point x="230" y="150"/>
      <point x="209" y="120"/>
      <point x="179" y="107" type="curve"/>
      <point x="197" y="99"/>
      <point x="219" y="95"/>
      <point x="245" y="95" type="curve" smooth="yes"/>
      <point x="332" y="95"/>
      <point x="385" y="169"/>
      <point x="385" y="250" type="curve"/>
      <point x="470" y="250" type="line"/>
      <point x="470" y="134"/>
      <point x="402" y="30"/>
      <point x="245" y="30" type="curve" smooth="yes"/>
      <point x="143" y="30"/>
      <point x="60" y="84"/>
      <point x="60" y="185" type="curve" smooth="yes"/>
      <point x="60" y="232"/>
      <point x="98" y="270"/>
    </contour>
    <contour>
      <point x="145" y="225" type="curve" smooth="yes"/>
      <point x="123" y="225"/>
      <point x="105" y="207"/>
      <point x="105" y="185" type="curve" smooth="yes"/>
      <point x="105" y="163"/>
      <point x="123" y="145"/>
      <point x="145" y="145" type="curve" smooth="yes"/>
      <point x="167" y="145"/>
      <point x="185" y="163"/>
      <point x="185" y="185" type="curve" smooth="yes"/>
      <point x="185" y="207"/>
      <point x="167" y="225"/>
    </contour>
  </outline>
</glyph>
<glyph name="uni0E31" format="1">
  <advance width="0"/>
  <unicode hex="0E31"/>
  <outline>
    <contour>
      <point x="0" y="0" type="move" name="mkmk-th-above"/>
    </contour>
    <contour>
      <point x="-305" y="940" type="curve" smooth="yes"/>
      <point x="-258" y="940"/>
      <point x="-220" y="902"/>
      <point x="-220" y="855" type="curve" smooth="yes"/>
      <point x="-220" y="820"/>
      <point x="-241" y="790"/>
      <point x="-271" y="777" type="curve"/>
      <point x="-253" y="769"/>
      <point x="-241" y="765"/>
      <point x="-215" y="765" type="curve" smooth="yes"/>
      <point x="-128" y="765"/>
      <point x="-75" y="839"/>
      <point x="-75" y="920" type="curve"/>
      <point x="10" y="920" type="line"/>
      <point x="10" y="804"/>
      <point x="-58" y="700"/>
      <point x="-215" y="700" type="curve" smooth="yes"/>
      <point x="-317" y="700"/>
      <point x="-390" y="754"/>
      <point x="-390" y="855" type="curve" smooth="yes"/>
      <point x="-390" y="902"/>
      <point x="-352" y="940"/>
    </contour>
    <contour>
      <point x="-305" y="895" type="curve" smooth="yes"/>
      <point x="-327" y="895"/>
      <point x="-345" y="877"/>
      <point x="-345" y="855" type="curve" smooth="yes"/>
      <point x="-345" y="833"/>
      <point x="-327" y="815"/>
      <point x="-305" y="815" type="curve" smooth="yes"/>
      <point x="-283" y="815"/>
      <point x="-265" y="833"/>
      <point x="-265" y="855" type="curve" smooth="yes"/>
      <point x="-265" y="877"/>
      <point x="-283" y="895"/>
    </contour>
  </outline>
</glyph>
<glyph name="uni0E34" format="1">
  <advance width="0"/>
  <unicode hex="0E34"/>
  <outline>
    <contour>
      <point x="-90" y="680" type="move" name="_mark-th-above"/>
    </contour>
    <contour>
      <point x="-471" y="816" type="curve"/>
      <point x="-387" y="814"/>
      <point x="-288" y="798"/>
      <point x="-176" y="748" type="curve"/>
      <point x="-217" y="818"/>
      <point x="-273" y="880"/>
      <point x="-370" y="880" type="curve" smooth="yes"/>
      <point x="-422" y="880"/>
      <point x="-460" y="856"/>
    </contour>
    <contour>
      <point x="-560" y="790" type="curve"/>
      <point x="-560" y="849"/>
      <point x="-502" y="950"/>
      <point x="-370" y="950" type="curve" smooth="yes"/>
      <point x="-189" y="950"/>
      <point x="-110" y="773"/>
      <point x="-110" y="690" type="curve"/>
      <point x="-296" y="780"/>
      <point x="-439" y="790"/>
    </contour>
  </outline>
</glyph>
<glyph name="uni0E35" format="1">
  <advance width="0"/>
  <unicode hex="0E35"/>
  <outline>
    <contour>
      <point x="-169" y="724" type="curve"/>
      <point x="-209" y="796"/>
      <point x="-267" y="860"/>
      <point x="-370" y="860" type="curve" smooth="yes"/>
      <point x="-430" y="860"/>
      <point x="-462" y="834"/>
      <point x="-472" y="796" type="curve"/>
      <point x="-386" y="794"/>
      <point x="-283" y="777"/>
    </contour>
    <contour>
      <point x="-190" y="960" type="line"/>
      <point x="-110" y="930" type="line"/>
      <point x="-110" y="670" type="line"/>
      <point x="-296" y="760"/>
      <point x="-439" y="770"/>
      <point x="-560" y="770" type="curve"/>
      <point x="-560" y="832"/>
      <point x="-502" y="930"/>
      <point x="-370" y="930" type="curve" smooth="yes"/>
      <point x="-263" y="930"/>
      <point x="-195" y="838"/>
      <point x="-159" y="768" type="curve"/>
      <point x="-174" y="816"/>
      <point x="-190" y="865"/>
      <point x="-190" y="900" type="curve" smooth="yes"/>
    </contour>
  </outline>
</glyph>
<glyph name="uni0E39" format="1">
  <advance width="0"/>
  <unicode hex="0E39"/>
  <outline>
    <contour>
      <point x="-240" y="-340" type="curve" smooth="yes"/>
      <point x="-354" y="-340"/>
      <point x="-370" y="-275"/>
      <point x="-370" y="-250" type="curve" smooth="yes"/>
      <point x="-370" y="-239" type="line"/>
      <point x="-373" y="-240"/>
      <point x="-377" y="-240"/>
      <point x="-380" y="-240" type="curve" smooth="yes"/>
      <point x="-430" y="-240"/>
      <point x="-470" y="-200"/>
      <point x="-470" y="-150" type="curve" smooth="yes"/>
      <point x="-470" y="-100"/>
      <point x="-430" y="-60"/>
      <point x="-380" y="-60" type="curve" smooth="yes"/>
      <point x="-330" y="-60"/>
      <point x="-290" y="-100"/>
      <point x="-290" y="-150" type="curve" smooth="yes"/>
      <point x="-290" y="-250" type="line" smooth="yes"/>
      <point x="-290" y="-266"/>
      <point x="-275" y="-285"/>
      <point x="-240" y="-285" type="curve" smooth="yes"/>
      <point x="-205" y="-285"/>
      <point x="-190" y="-266"/>
      <point x="-190" y="-250" type="curve" smooth="yes"/>
      <point x="-190" y="-70" type="line"/>
      <point x="-110" y="-70" type="line"/>
      <point x="-110" y="-250" type="line" smooth="yes"/>
      <point x="-110" y="-275"/>
      <point x="-126" y="-340"/>
    </contour>
    <contour>
      <point x="-380" y="-110" type="curve" smooth="yes"/>
      <point x="-402" y="-110"/>
      <point x="-420" y="-128"/>
      <point x="-420" y="-150" type="curve" smooth="yes"/>
      <point x="-420" y="-172"/>
      <point x="-402" y="-190"/>
      <point x="-380" y="-190" type="curve" smooth="yes"/>
      <point x="-358" y="-190"/>
      <point x="-340" y="-172"/>
      <point x="-340" y="-150" type="curve" smooth="yes"/>
      <point x="-340" y="-128"/>
      <point x="-358" y="-110"/>
    </contour>
  </outline>
</glyph>
<glyph name="uni0E3F" format="1">
  <advance width="660"/>
  <unicode hex="0E3F"/>
  <outline>
    <contour>
      <point x="290" y="920" type="line"/>
      <point x="360" y="920" type="line"/>
      <point x="360" y="796" type="line"/>
      <point x="513" y="776"/>
      <point x="560" y="676"/>
      <point x="560" y="580" type="curve" smooth="yes"/>
      <point x="560" y="516"/>
      <point x="532" y="458"/>
      <point x="479" y="421" type="curve"/>
      <point x="553" y="387"/>
      <point x="600" y="323"/>
      <point x="600" y="230" type="curve" smooth="yes"/>
      <point x="600" y="83"/>
      <point x="513" y="0"/>
      <point x="360" y="0" type="curve"/>
      <point x="360" y="-120" type="line"/>
      <point x="290" y="-120" type="line"/>
      <point x="290" y="0" type="line"/>
      <point x="90" y="0" type="line"/>
      <point x="90" y="800" type="line"/>
      <point x="290" y="800" type="line"/>
    </contour>
    <contour>
      <point x="290" y="90" type="line"/>
      <point x="290" y="370" type="line"/>
      <point x="190" y="370" type="line"/>
      <point x="190" y="90" type="line"/>
    </contour>
    <contour>
      <point x="360" y="369" type="curve"/>
      <point x="360" y="90" type="line"/>
      <point x="462" y="90"/>
      <point x="500" y="154"/>
      <point x="500" y="230" type="curve" smooth="yes"/>
      <point x="500" y="320"/>
      <point x="444" y="361"/>
    </contour>
    <contour>
      <point x="360" y="710" type="curve"/>
      <point x="360" y="462" type="line"/>
      <point x="430" y="473"/>
      <point x="460" y="523"/>
      <point x="460" y="580" type="curve" smooth="yes"/>
      <point x="460" y="652"/>
      <point x="435" y="696"/>
    </contour>
    <contour>
      <point x="290" y="460" type="line"/>
      <point x="290" y="715" type="line"/>
      <point x="190" y="715" type="line"/>
      <point x="190" y="460" type="line"/>
    </contour>
  </outline>
</glyph>
<glyph name="uni0E42" format="1">
  <advance width="400"/>
  <unicode hex="0E42"/>
  <outline>
    <contour>
      <point x="0" y="760" type="curve"/>
      <point x="0" y="842"/>
      <point x="66" y="920"/>
      <point x="175" y="920" type="curve" smooth="yes"/>
      <point x="233" y="920"/>
      <point x="271" y="891"/>
      <point x="290" y="870" type="curve"/>
      <point x="307" y="889"/>
      <point x="341" y="910"/>
      <point x="370" y="920" type="curve"/>
      <point x="370" y="840" type="line"/>
      <point x="334" y="830"/>
      <point x="306" y="810"/>
      <point x="290" y="790" type="curve"/>
      <point x="267" y="823"/>
      <point x="242" y="860"/>
      <point x="175" y="860" type="curve" smooth="yes"/>
      <point x="116" y="860"/>
      <point x="88" y="824"/>
      <point x="82" y="799" type="curve"/>
      <point x="191" y="791"/>
      <point x="250" y="720"/>
      <point x="250" y="500" type="curve" smooth="yes"/>
      <point x="250" y="210" type="line"/>
      <point x="260" y="210" type="line" smooth="yes"/>
      <point x="321" y="210"/>
      <point x="370" y="161"/>
      <point x="370" y="100" type="curve" smooth="yes"/>
      <point x="370" y="39"/>
      <point x="321" y="-10"/>
      <point x="260" y="-10" type="curve" smooth="yes"/>
      <point x="199" y="-10"/>
      <point x="150" y="39"/>
      <point x="150" y="100" type="curve" smooth="yes"/>
      <point x="150" y="500" type="line" smooth="yes"/>
      <point x="150" y="713"/>
      <point x="136" y="760"/>
    </contour>
    <contour>
      <point x="260" y="150" type="curve" smooth="yes"/>
      <point x="232" y="150"/>
      <point x="210" y="128"/>
      <point x="210" y="100" type="curve" smooth="yes"/>
      <point x="210" y="72"/>
      <point x="232" y="50"/>
      <point x="260" y="50" type="curve" smooth="yes"/>
      <point x="288" y="50"/>
      <point x="310" y="72"/>
      <point x="310" y="100" type="curve" smooth="yes"/>
      <point x="310" y="128"/>
      <point x="288" y="150"/>
    </contour>
  </outline>
</glyph>
<glyph name="uni0E44" format="1">
  <advance width="400"/>
  <unicode hex="0E44"/>
  <outline>
    <contour>
      <point x="190" y="845" type="curve"/>
      <point x="340" y="920" type="line"/>
      <point x="356" y="920"/>
      <point x="390" y="888"/>
      <point x="390" y="840" type="curve" smooth="yes"/>
      <point x="390" y="730"/>
      <point x="250" y="668"/>
      <point x="250" y="500" type="curve" smooth="yes"/>
      <point x="250" y="210" type="line"/>
      <point x="260" y="210" type="line" smooth="yes"/>
      <point x="321" y="210"/>
      <point x="370" y="161"/>
      <point x="370" y="100" type="curve" smooth="yes"/>
      <point x="370" y="39"/>
      <point x="321" y="-10"/>
      <point x="260" y="-10" type="curve" smooth="yes"/>
      <point x="199" y="-10"/>
      <point x="150" y="39"/>
      <point x="150" y="100" type="curve" smooth="yes"/>
      <point x="150" y="500" type="line" smooth="yes"/>
      <point x="150" y="672"/>
      <point x="324" y="772"/>
      <point x="339" y="849" type="curve"/>
      <point x="190" y="775" type="line"/>
      <point x="190" y="775"/>
      <point x="106" y="850"/>
      <point x="30" y="850" type="curve"/>
      <point x="30" y="920" type="line"/>
      <point x="129" y="920"/>
      <point x="190" y="845"/>
    </contour>
    <contour>
      <point x="260" y="150" type="curve" smooth="yes"/>
      <point x="232" y="150"/>
      <point x="210" y="128"/>
      <point x="210" y="100" type="curve" smooth="yes"/>
      <point x="210" y="72"/>
      <point x="232" y="50"/>
      <point x="260" y="50" type="curve" smooth="yes"/>
      <point x="288" y="50"/>
      <point x="310" y="72"/>
      <point x="310" y="100" type="curve" smooth="yes"/>
      <point x="310" y="128"/>
      <point x="288" y="150"/>
    </contour>
  </outline>
</glyph>
<glyph name="uni0E45" format="1">
  <advance width="560"/>
  <unicode hex="0E45"/>
  <outline>
    <contour>
      <point x="360" y="400" type="line" smooth="yes"/>
      <point x="360" y="472"/>
      <point x="329" y="535"/>
      <point x="245" y="535" type="curve" smooth="yes"/>
      <point x="161" y="535"/>
      <point x="130" y="472"/>
      <point x="130" y="400" type="curve"/>
      <point x="30" y="400" type="line"/>
      <point x="30" y="537"/>
      <point x="119" y="620"/>
      <point x="245" y="620" type="curve" smooth="yes"/>
      <point x="371" y="620"/>
      <point x="460" y="537"/>
      <point x="460" y="400" type="curve" smooth="yes"/>
      <point x="460" y="-240" type="line"/>
      <point x="360" y="-240" type="line"/>
    </contour>
  </outline>
</glyph>
<glyph name="uni0E48" format="1">
  <advance width="0"/>
  <unicode hex="0E48"/>
  <outline>
    <contour>
      <point x="-190" y="1230" type="line"/>
      <point x="-110" y="1230" type="line"/>
      <point x="-110" y="980" type="line"/>
      <point x="-190" y="1017" type="line"/>
    </contour>
  </outline>
</glyph>
<glyph name="uni0E4A" format="1">
  <advance width="0"/>
  <unicode hex="0E4A"/>
  <outline>
    <contour>
      <point x="-190" y="1180" type="curve"/>
      <point x="-214" y="1140" type="line"/>
      <point x="-260" y="1140" type="line"/>
      <point x="-263" y="1158"/>
      <point x="-272" y="1180"/>
      <point x="-294" y="1180" type="curve" smooth="yes"/>
      <point x="-317" y="1180"/>
      <point x="-333" y="1152"/>
      <point x="-334" y="1120" type="curve"/>
      <point x="-324" y="1127"/>
      <point x="-312" y="1130"/>
      <point x="-300" y="1130" type="curve" smooth="yes"/>
      <point x="-264" y="1130"/>
      <point x="-234" y="1101"/>
      <point x="-234" y="1065" type="curve" smooth="yes"/>
      <point x="-234" y="1030"/>
      <point x="-264" y="1000"/>
      <point x="-300" y="1000" type="curve" smooth="yes"/>
      <point x="-355" y="1000"/>
      <point x="-390" y="1055"/>
      <point x="-390" y="1115" type="curve" smooth="yes"/>
      <point x="-390" y="1176"/>
      <point x="-350" y="1230"/>
      <point x="-294" y="1230" type="curve" smooth="yes"/>
      <point x="-261" y="1230"/>
      <point x="-242" y="1206"/>
      <point x="-234" y="1187" type="curve"/>
      <point x="-210" y="1230" type="line"/>
      <point x="-190" y="1230" type="line" smooth="yes"/>
      <point x="-134" y="1230"/>
      <point x="-100" y="1181"/>
      <point x="-100" y="1120" type="curve" smooth="yes"/>
      <point x="-100" y="1105"/>
      <point x="-102" y="1090"/>
      <point x="-106" y="1076" type="curve"/>
      <point x="-86" y="1087"/>
      <point x="-70" y="1122"/>
      <point x="-70" y="1220" type="curve"/>
      <point x="0" y="1220" type="line"/>
      <point x="0" y="1111"/>
      <point x="-18" y="1005"/>
      <point x="-190" y="1005" type="curve"/>
      <point x="-190" y="1050" type="line"/>
      <point x="-168" y="1050"/>
      <point x="-154" y="1081"/>
      <point x="-154" y="1120" type="curve" smooth="yes"/>
      <point x="-154" y="1146"/>
      <point x="-169" y="1172"/>
    </contour>
    <contour>
      <point x="-300" y="1095" type="curve" smooth="yes"/>
      <point x="-316" y="1095"/>
      <point x="-330" y="1082"/>
      <point x="-330" y="1065" type="curve" smooth="yes"/>
      <point x="-330" y="1049"/>
      <point x="-316" y="1035"/>
      <point x="-300" y="1035" type="curve" smooth="yes"/>
      <point x="-283" y="1035"/>
      <point x="-270" y="1049"/>
      <point x="-270" y="1065" type="curve" smooth="yes"/>
      <point x="-270" y="1082"/>
      <point x="-283" y="1095"/>
    </contour>
  </outline>
</glyph>
<glyph name="uni0E4C" format="1">
  <advance width="0"/>
  <unicode hex="0E4C"/>
  <outline>
    <contour>
      <point x="-204" y="1080" type="curve" smooth="yes"/>
      <point x="-224" y="1080"/>
      <point x="-240" y="1064"/>
      <point x="-240" y="1045" type="curve" smooth="yes"/>
      <point x="-240" y="1026"/>
      <point x="-224" y="1010"/>
      <point x="-204" y="1010" type="curve" smooth="yes"/>
      <point x="-185" y="1010"/>
      <point x="-170" y="1026"/>
      <point x="-170" y="1045" type="curve" smooth="yes"/>
      <point x="-170" y="1064"/>
      <point x="-185" y="1080"/>
    </contour>
    <contour>
      <point x="-144" y="1230" type="curve"/>
      <point x="-60" y="1230" type="line"/>
      <point x="-60" y="1166"/>
      <point x="-120" y="1139"/>
      <point x="-161" y="1106" type="curve"/>
      <point x="-142" y="1093"/>
      <point x="-130" y="1070"/>
      <point x="-130" y="1045" type="curve" smooth="yes"/>
      <point x="-130" y="1004"/>
      <point x="-163" y="970"/>
      <point x="-204" y="970" type="curve" smooth="yes"/>
      <point x="-246" y="970"/>
      <point x="-280" y="1004"/>
      <point x="-280" y="1045" type="curve" smooth="yes"/>
      <point x="-280" y="1142"/>
      <point x="-144" y="1163"/>
    </contour>
  </outline>
</glyph>
<glyph name="uni0E50" format="1">
  <advance width="800"/>
  <unicode hex="0E50"/>
  <outline>
    <contour>
      <point x="400" y="530" type="curve" smooth="yes"/>
      <point x="267" y="530"/>
      <point x="180" y="427"/>
      <point x="180" y="300" type="curve" smooth="yes"/>
      <point x="180" y="173"/>
      <point x="267" y="70"/>
      <point x="400" y="70" type="curve" smooth="yes"/>
      <point x="533" y="70"/>
      <point x="620" y="173"/>
      <point x="620" y="300" type="curve" smooth="yes"/>
      <point x="620" y="427"/>
      <point x="533" y="530"/>
    </contour>
    <contour>
      <point x="400" y="620" type="curve" smooth="yes"/>
      <point x="577" y="620"/>
      <point x="720" y="477"/>
      <point x="720" y="300" type="curve" smooth="yes"/>
      <point x="720" y="123"/>
      <point x="577" y="-20"/>
      <point x="400" y="-20" type="curve" smooth="yes"/>
      <point x="223" y="-20"/>
      <point x="80" y="123"/>
      <point x="80" y="300" type="curve" smooth="yes"/>
      <point x="80" y="477"/>
      <point x="223" y="620"/>
    </contour>
  </outline>
</glyph>
<glyph name="uni0E52" format="1">
  <advance width="930"/>
  <unicode hex="0E52"/>
  <outline>
    <contour>
      <point x="440" y="340" type="curve" smooth="yes"/>
      <point x="412" y="340"/>
      <point x="390" y="318"/>
      <point x="390" y="290" type="curve" smooth="yes"/>
      <point x="390" y="262"/>
      <point x="412" y="240"/>
      <point x="440" y="240" type="curve" smooth="yes"/>
      <point x="468" y="240"/>
      <point x="490" y="262"/>
      <point x="490" y="290" type="curve" smooth="yes"/>
      <point x="490" y="318"/>
      <point x="468" y="340"/>
    </contour>
    <contour>
      <point x="70" y="810" type="curve"/>
      <point x="170" y="810" type="line"/>
      <point x="170" y="810"/>
      <point x="210" y="713"/>
      <point x="210" y="600" type="curve" smooth="yes"/>
      <point x="210" y="90" type="line"/>
      <point x="750" y="90" type="line"/>
      <point x="750" y="390" type="line" smooth="yes"/>
      <point x="750" y="489"/>
      <point x="742" y="518"/>
      <point x="690" y="540" type="curve"/>
      <point x="610" y="400" type="line"/>
      <point x="530" y="400" type="line"/>
      <point x="530" y="485"/>
      <point x="497" y="540"/>
      <point x="440" y="540" type="curve" smooth="yes"/>
      <point x="383" y="540"/>
      <point x="350" y="485"/>
      <point x="350" y="400" type="curve" smooth="yes"/>
      <point x="350" y="385"/>
      <point x="351" y="371"/>
      <point x="353" y="358" type="curve"/>
      <point x="373" y="383"/>
      <point x="405" y="400"/>
      <point x="440" y="400" type="curve" smooth="yes"/>
      <point x="501" y="400"/>
      <point x="550" y="351"/>
      <point x="550" y="290" type="curve" smooth="yes"/>
      <point x="550" y="229"/>
      <point x="501" y="180"/>
      <point x="440" y="180" type="curve" smooth="yes"/>
      <point x="339" y="180"/>
      <point x="270" y="282"/>
      <point x="270" y="400" type="curve" smooth="yes"/>
      <point x="270" y="518"/>
      <point x="339" y="620"/>
      <point x="440" y="620" type="curve" smooth="yes"/>
      <point x="509" y="620"/>
      <point x="562" y="573"/>
      <point x="590" y="506" type="curve"/>
      <point x="655" y="620" type="line"/>
      <point x="690" y="620" type="line"/>
      <point x="802" y="593"/>
      <point x="850" y="535"/>
      <point x="850" y="390" type="curve" smooth="yes"/>
      <point x="850" y="90" type="line" smooth="yes"/>
      <point x="850" y="40"/>
      <point x="805" y="0"/>
      <point x="750" y="0" type="curve" smooth="yes"/>
      <point x="210" y="0" type="line" smooth="yes"/>
      <point x="155" y="0"/>
      <point x="110" y="40"/>
      <point x="110" y="90" type="curve" smooth="yes"/>
      <point x="110" y="600" type="line" smooth="yes"/>
      <point x="110" y="706"/>
      <point x="70" y="810"/>
    </contour>
  </outline>
</glyph>
<glyph name="uni0E53" format="1">
  <advance width="850"/>
  <unicode hex="0E53"/>
  <outline>
    <contour>
      <point x="300" y="530" type="curve" smooth="yes"/>
      <point x="241" y="530"/>
      <point x="180" y="444"/>
      <point x="180" y="300" type="curve" smooth="yes"/>
      <point x="180" y="253"/>
      <point x="184" y="212"/>
      <point x="192" y="177" type="curve"/>
      <point x="214" y="226"/>
      <point x="263" y="260"/>
      <point x="320" y="260" type="curve" smooth="yes"/>
      <point x="397" y="260"/>
      <point x="460" y="197"/>
      <point x="460" y="120" type="curve" smooth="yes"/>
      <point x="460" y="43"/>
      <point x="397" y="-20"/>
      <point x="320" y="-20" type="curve" smooth="yes"/>
      <point x="168" y="-20"/>
      <point x="80" y="115"/>
      <point x="80" y="300" type="curve" smooth="yes"/>
      <point x="80" y="485"/>
      <point x="180" y="620"/>
      <point x="300" y="620" type="curve" smooth="yes"/>
      <point x="386" y="620"/>
      <point x="445" y="567"/>
      <point x="473" y="470" type="curve"/>
      <point x="560" y="620" type="line"/>
      <point x="600" y="620" type="line"/>
      <point x="712" y="593"/>
      <point x="760" y="505"/>
      <point x="760" y="360" type="curve" smooth="yes"/>
      <point x="760" y="0" type="line"/>
      <point x="660" y="0" type="line"/>
      <point x="660" y="360" type="line" smooth="yes"/>
      <point x="660" y="459"/>
      <point x="652" y="508"/>
      <point x="600" y="530" type="curve"/>
      <point x="490" y="330" type="line"/>
      <point x="400" y="330" type="line"/>
      <point x="400" y="474"/>
      <point x="359" y="530"/>
    </contour>
    <contour>
      <point x="320" y="190" type="curve" smooth="yes"/>
      <point x="281" y="190"/>
      <point x="250" y="159"/>
      <point x="250" y="120" type="curve" smooth="yes"/>
      <point x="250" y="81"/>
      <point x="281" y="50"/>
      <point x="320" y="50" type="curve" smooth="yes"/>
      <point x="359" y="50"/>
      <point x="390" y="81"/>
      <point x="390" y="120" type="curve" smooth="yes"/>
      <point x="390" y="159"/>
      <point x="359" y="190"/>
    </contour>
  </outline>
</glyph>
<glyph name="uni0E54" format="1">
  <advance width="890"/>
  <unicode hex="0E54"/>
  <outline>
    <contour>
      <point x="540" y="400" type="curve" smooth="yes"/>
      <point x="606" y="400"/>
      <point x="660" y="346"/>
      <point x="660" y="280" type="curve" smooth="yes"/>
      <point x="660" y="214"/>
      <point x="606" y="160"/>
      <point x="540" y="160" type="curve" smooth="yes"/>
      <point x="531" y="160" type="line"/>
      <point x="573" y="115"/>
      <point x="630" y="90"/>
      <point x="660" y="90" type="curve" smooth="yes"/>
      <point x="770" y="90" type="line"/>
      <point x="770" y="0" type="line"/>
      <point x="390" y="0" type="line" smooth="yes"/>
      <point x="210" y="0"/>
      <point x="90" y="127"/>
      <point x="90" y="300" type="curve" smooth="yes"/>
      <point x="90" y="473"/>
      <point x="210" y="600"/>
      <point x="390" y="600" type="curve" smooth="yes"/>
      <point x="570" y="600" type="line" smooth="yes"/>
      <point x="701" y="600"/>
      <point x="769" y="712"/>
      <point x="770" y="810" type="curve"/>
      <point x="870" y="810" type="line"/>
      <point x="870" y="630"/>
      <point x="750" y="510"/>
      <point x="570" y="510" type="curve" smooth="yes"/>
      <point x="390" y="510" type="line" smooth="yes"/>
      <point x="259" y="510"/>
      <point x="190" y="407"/>
      <point x="190" y="300" type="curve" smooth="yes"/>
      <point x="190" y="193"/>
      <point x="259" y="90"/>
      <point x="390" y="90" type="curve" smooth="yes"/>
      <point x="510" y="90" type="line"/>
      <point x="510" y="90"/>
      <point x="410" y="162"/>
      <point x="410" y="270" type="curve" smooth="yes"/>
      <point x="410" y="344"/>
      <point x="467" y="400"/>
    </contour>
    <contour>
      <point x="540" y="335" type="curve" smooth="yes"/>
      <point x="510" y="335"/>
      <point x="485" y="310"/>
      <point x="485" y="280" type="curve" smooth="yes"/>
      <point x="485" y="250"/>
      <point x="510" y="225"/>
      <point x="540" y="225" type="curve" smooth="yes"/>
      <point x="570" y="225"/>
      <point x="595" y="250"/>
      <point x="595" y="280" type="curve" smooth="yes"/>
      <point x="595" y="310"/>
      <point x="570" y="335"/>
    </contour>
  </outline>
</glyph>
<glyph name="uni0E55" format="1">
  <advance width="890"/>
  <unicode hex="0E55"/>
  <outline>
    <contour>
      <point x="490" y="735" type="curve" smooth="yes"/>
      <point x="460" y="735"/>
      <point x="435" y="710"/>
      <point x="435" y="680" type="curve" smooth="yes"/>
      <point x="435" y="650"/>
      <point x="460" y="625"/>
      <point x="490" y="625" type="curve" smooth="yes"/>
      <point x="520" y="625"/>
      <point x="545" y="650"/>
      <point x="545" y="680" type="curve" smooth="yes"/>
      <point x="545" y="710"/>
      <point x="520" y="735"/>
    </contour>
    <contour>
      <point x="540" y="335" type="curve" smooth="yes"/>
      <point x="510" y="335"/>
      <point x="485" y="310"/>
      <point x="485" y="280" type="curve" smooth="yes"/>
      <point x="485" y="250"/>
      <point x="510" y="225"/>
      <point x="540" y="225" type="curve" smooth="yes"/>
      <point x="570" y="225"/>
      <point x="595" y="250"/>
      <point x="595" y="280" type="curve" smooth="yes"/>
      <point x="595" y="310"/>
      <point x="570" y="335"/>
    </contour>
    <contour>
      <point x="540" y="400" type="curve" smooth="yes"/>
      <point x="606" y="400"/>
      <point x="660" y="346"/>
      <point x="660" y="280" type="curve" smooth="yes"/>
      <point x="660" y="214"/>
      <point x="606" y="160"/>
      <point x="540" y="160" type="curve" smooth="yes"/>
      <point x="531" y="160" type="line"/>
      <point x="573" y="115"/>
      <point x="630" y="90"/>
      <point x="660" y="90" type="curve" smooth="yes"/>
      <point x="770" y="90" type="line"/>
      <point x="770" y="0" type="line"/>
      <point x="390" y="0" type="line" smooth="yes"/>
      <point x="210" y="0"/>
      <point x="90" y="127"/>
      <point x="90" y="300" type="curve" smooth="yes"/>
      <point x="90" y="473"/>
      <point x="210" y="600"/>
      <point x="390" y="600" type="curve" smooth="yes"/>
      <point x="401" y="600" type="line"/>
      <point x="382" y="621"/>
      <point x="370" y="649"/>
      <point x="370" y="680" type="curve" smooth="yes"/>
      <point x="370" y="746"/>
      <point x="424" y="800"/>
      <point x="490" y="800" type="curve" smooth="yes"/>
      <point x="556" y="800"/>
      <point x="610" y="746"/>
      <point x="610" y="680" type="curve" smooth="yes"/>
      <point x="610" y="649"/>
      <point x="599" y="621"/>
      <point x="580" y="600" type="curve"/>
      <point x="704" y="606"/>
      <point x="769" y="714"/>
      <point x="770" y="810" type="curve"/>
      <point x="870" y="810" type="line"/>
      <point x="870" y="630"/>
      <point x="750" y="510"/>
      <point x="570" y="510" type="curve" smooth="yes"/>
      <point x="390" y="510" type="line" smooth="yes"/>
      <point x="259" y="510"/>
      <point x="190" y="407"/>
      <point x="190" y="300" type="curve" smooth="yes"/>
      <point x="190" y="193"/>
      <point x="259" y="90"/>
      <point x="390" y="90" type="curve" smooth="yes"/>
      <point x="510" y="90" type="line"/>
      <point x="510" y="90"/>
      <point x="410" y="162"/>
      <point x="410" y="270" type="curve" smooth="yes"/>
      <point x="410" y="344"/>
      <point x="467" y="400"/>
    </contour>
  </outline>
</glyph>
<glyph name="uni0E56" format="1">
  <advance width="800"/>
  <unicode hex="0E56"/>
  <outline>
    <contour>
      <point x="240" y="400" type="curve" smooth="yes"/>
      <point x="306" y="400"/>
      <point x="360" y="346"/>
      <point x="360" y="280" type="curve" smooth="yes"/>
      <point x="360" y="214"/>
      <point x="306" y="160"/>
      <point x="240" y="160" type="curve" smooth="yes"/>
      <point x="235" y="160"/>
      <point x="231" y="160"/>
      <point x="226" y="161" type="curve"/>
      <point x="259" y="101"/>
      <point x="321" y="70"/>
      <point x="410" y="70" type="curve" smooth="yes"/>
      <point x="535" y="70"/>
      <point x="620" y="164"/>
      <point x="620" y="300" type="curve" smooth="yes"/>
      <point x="620" y="407"/>
      <point x="541" y="510"/>
      <point x="410" y="510" type="curve" smooth="yes"/>
      <point x="300" y="510" type="line" smooth="yes"/>
      <point x="120" y="510"/>
      <point x="50" y="630"/>
      <point x="50" y="810" type="curve"/>
      <point x="150" y="810" type="line"/>
      <point x="151" y="712"/>
      <point x="169" y="600"/>
      <point x="300" y="600" type="curve" smooth="yes"/>
      <point x="410" y="600" type="line" smooth="yes"/>
      <point x="590" y="600"/>
      <point x="720" y="473"/>
      <point x="720" y="300" type="curve" smooth="yes"/>
      <point x="720" y="104"/>
      <point x="590" y="-20"/>
      <point x="410" y="-20" type="curve" smooth="yes"/>
      <point x="213" y="-20"/>
      <point x="110" y="124"/>
      <point x="110" y="260" type="curve" smooth="yes"/>
      <point x="110" y="334"/>
      <point x="167" y="400"/>
    </contour>
    <contour>
      <point x="240" y="335" type="curve" smooth="yes"/>
      <point x="210" y="335"/>
      <point x="185" y="310"/>
      <point x="185" y="280" type="curve" smooth="yes"/>
      <point x="185" y="250"/>
      <point x="210" y="225"/>
      <point x="240" y="225" type="curve" smooth="yes"/>
      <point x="270" y="225"/>
      <point x="295" y="250"/>
      <point x="295" y="280" type="curve" smooth="yes"/>
      <point x="295" y="310"/>
      <point x="270" y="335"/>
    </contour>
  </outline>
</glyph>
<glyph name="uni0E57" format="1">
  <advance width="1050"/>
  <unicode hex="0E57"/>
  <outline>
    <contour>
      <point x="320" y="190" type="curve" smooth="yes"/>
      <point x="281" y="190"/>
      <point x="250" y="159"/>
      <point x="250" y="120" type="curve" smooth="yes"/>
      <point x="250" y="81"/>
      <point x="281" y="50"/>
      <point x="320" y="50" type="curve" smooth="yes"/>
      <point x="359" y="50"/>
      <point x="390" y="81"/>
      <point x="390" y="120" type="curve" smooth="yes"/>
      <point x="390" y="159"/>
      <point x="359" y="190"/>
    </contour>
    <contour>
      <point x="300" y="530" type="curve" smooth="yes"/>
      <point x="241" y="530"/>
      <point x="180" y="444"/>
      <point x="180" y="300" type="curve" smooth="yes"/>
      <point x="180" y="253"/>
      <point x="184" y="212"/>
      <point x="192" y="177" type="curve"/>
      <point x="214" y="226"/>
      <point x="263" y="260"/>
      <point x="320" y="260" type="curve" smooth="yes"/>
      <point x="397" y="260"/>
      <point x="460" y="197"/>
      <point x="460" y="120" type="curve" smooth="yes"/>
      <point x="460" y="43"/>
      <point x="397" y="-20"/>
      <point x="320" y="-20" type="curve" smooth="yes"/>
      <point x="168" y="-20"/>
      <point x="80" y="115"/>
      <point x="80" y="300" type="curve" smooth="yes"/>
      <point x="80" y="485"/>
      <point x="180" y="620"/>
      <point x="300" y="620" type="curve" smooth="yes"/>
      <point x="386" y="620"/>
      <point x="445" y="567"/>
      <point x="473" y="470" type="curve"/>
      <point x="560" y="620" type="line"/>
      <point x="600" y="620" type="line"/>
      <point x="712" y="593"/>
      <point x="750" y="505"/>
      <point x="750" y="360" type="curve" smooth="yes"/>
      <point x="750" y="74" type="line"/>
      <point x="831" y="85"/>
      <point x="870" y="121"/>
      <point x="870" y="230" type="curve" smooth="yes"/>
      <point x="870" y="600" type="line"/>
      <point x="960" y="600" type="line"/>
      <point x="960" y="230" type="line" smooth="yes"/>
      <point x="960" y="32"/>
      <point x="842" y="-10"/>
      <point x="660" y="-10" type="curve"/>
      <point x="660" y="70" type="line"/>
      <point x="660" y="360" type="line" smooth="yes"/>
      <point x="660" y="459"/>
      <point x="652" y="508"/>
      <point x="600" y="530" type="curve"/>
      <point x="490" y="330" type="line"/>
      <point x="400" y="330" type="line"/>
      <point x="400" y="474"/>
      <point x="359" y="530"/>
    </contour>
  </outline>
</glyph>
<glyph name="uni0E58" format="1">
  <advance width="910"/>
  <unicode hex="0E58"/>
  <outline>
    <contour>
      <point x="690" y="400" type="curve" smooth="yes"/>
      <point x="770" y="400"/>
      <point x="820" y="329"/>
      <point x="820" y="255" type="curve" smooth="yes"/>
      <point x="820" y="200" type="line" smooth="yes"/>
      <point x="820" y="76"/>
      <point x="751" y="-20"/>
      <point x="625" y="-20" type="curve" smooth="yes"/>
      <point x="529" y="-20"/>
      <point x="455" y="36"/>
      <point x="418" y="127" type="curve"/>
      <point x="360" y="-10" type="line"/>
      <point x="180" y="-10"/>
      <point x="80" y="127"/>
      <point x="80" y="300" type="curve" smooth="yes"/>
      <point x="80" y="473"/>
      <point x="200" y="600"/>
      <point x="380" y="600" type="curve" smooth="yes"/>
      <point x="560" y="600" type="line" smooth="yes"/>
      <point x="691" y="600"/>
      <point x="759" y="712"/>
      <point x="760" y="810" type="curve"/>
      <point x="860" y="810" type="line"/>
      <point x="860" y="630"/>
      <point x="740" y="510"/>
      <point x="560" y="510" type="curve" smooth="yes"/>
      <point x="380" y="510" type="line" smooth="yes"/>
      <point x="249" y="510"/>
      <point x="180" y="407"/>
      <point x="180" y="300" type="curve" smooth="yes"/>
      <point x="180" y="209"/>
      <point x="215" y="111"/>
      <point x="305" y="83" type="curve"/>
      <point x="390" y="280" type="line"/>
      <point x="440" y="280" type="line"/>
      <point x="480" y="280" type="line"/>
      <point x="480" y="131"/>
      <point x="552" y="60"/>
      <point x="625" y="60" type="curve" smooth="yes"/>
      <point x="690" y="60"/>
      <point x="730" y="116"/>
      <point x="730" y="160" type="curve" smooth="yes"/>
      <point x="730" y="167" type="line"/>
      <point x="717" y="162"/>
      <point x="704" y="160"/>
      <point x="690" y="160" type="curve" smooth="yes"/>
      <point x="624" y="160"/>
      <point x="570" y="214"/>
      <point x="570" y="280" type="curve" smooth="yes"/>
      <point x="570" y="346"/>
      <point x="624" y="400"/>
    </contour>
    <contour>
      <point x="690" y="335" type="curve" smooth="yes"/>
      <point x="660" y="335"/>
      <point x="635" y="310"/>
      <point x="635" y="280" type="curve" smooth="yes"/>
      <point x="635" y="250"/>
      <point x="660" y="225"/>
      <point x="690" y="225" type="curve" smooth="yes"/>
      <point x="720" y="225"/>
      <point x="745" y="250"/>
      <point x="745" y="280" type="curve" smooth="yes"/>
      <point x="745" y="310"/>
      <point x="720" y="335"/>
    </contour>
  </outline>
</glyph>
<glyph name="uni0E5A" format="1">
  <advance width="730"/>
  <unicode hex="0E5A"/>
  <outline>
    <contour>
      <point x="145" y="600" type="curve" smooth="yes"/>
      <point x="192" y="600"/>
      <point x="230" y="562"/>
      <point x="230" y="515" type="curve" smooth="yes"/>
      <point x="230" y="480"/>
      <point x="209" y="450"/>
      <point x="179" y="437" type="curve"/>
      <point x="196" y="428"/>
      <point x="221" y="425"/>
      <point x="255" y="425" type="curve" smooth="yes"/>
      <point x="342" y="425"/>
      <point x="400" y="484"/>
      <point x="400" y="580" type="curve"/>
      <point x="460" y="580" type="line"/>
      <point x="460" y="170" type="line" smooth="yes"/>
      <point x="460" y="53"/>
      <point x="364" y="-20"/>
      <point x="250" y="-20" type="curve"/>
      <point x="250" y="50" type="line"/>
      <point x="311" y="50"/>
      <point x="380" y="92"/>
      <point x="380" y="170" type="curve" smooth="yes"/>
      <point x="380" y="400" type="line"/>
      <point x="348" y="375"/>
      <point x="306" y="360"/>
      <point x="255" y="360" type="curve" smooth="yes"/>
      <point x="165" y="360"/>
      <point x="60" y="409"/>
      <point x="60" y="515" type="curve" smooth="yes"/>
      <point x="60" y="562"/>
      <point x="98" y="600"/>
    </contour>
    <contour>
      <point x="145" y="555" type="curve" smooth="yes"/>
      <point x="123" y="555"/>
      <point x="105" y="537"/>
      <point x="105" y="515" type="curve" smooth="yes"/>
      <point x="105" y="493"/>
      <point x="123" y="475"/>
      <point x="145" y="475" type="curve" smooth="yes"/>
      <point x="167" y="475"/>
      <point x="185" y="493"/>
      <point x="185" y="515" type="curve" smooth="yes"/>
      <point x="185" y="537"/>
      <point x="167" y="555"/>
    </contour>
    <contour>
      <point x="640" y="170" type="line" smooth="yes"/>
      <point x="640" y="53"/>
      <point x="573" y="-20"/>
      <point x="480" y="-20" type="curve"/>
      <point x="480" y="50" type="line"/>
      <point x="517" y="50"/>
      <point x="560" y="92"/>
      <point x="560" y="170" type="curve" smooth="yes"/>
      <point x="560" y="580" type="line"/>
      <point x="640" y="580" type="line"/>
    </contour>
  </outline>
</glyph>
<glyph name="endash" format="1">
  <advance width="690"/>
  <unicode hex="2013"/>
  <outline>
    <contour>
      <point x="100" y="355" type="line"/>
      <point x="600" y="355" type="line"/>
      <point x="600" y="285" type="line"/>
      <point x="100" y="285" type="line"/>
    </contour>
  </outline>
</glyph>
<glyph name="quoteleft" format="1">
  <advance width="300"/>
  <unicode hex="2018"/>
  <outline>
    <contour>
      <point x="160" y="520" type="curve" smooth="yes"/>
      <point x="109" y="520"/>
      <point x="80" y="559"/>
      <point x="80" y="610" type="curve" smooth="yes"/>
      <point x="80" y="688"/>
      <point x="126" y="767"/>
      <point x="185" y="810" type="curve"/>
      <point x="240" y="810" type="line"/>
      <point x="190" y="767"/>
      <point x="160" y="715"/>
      <point x="160" y="660" type="curve"/>
      <point x="199" y="660"/>
      <point x="230" y="629"/>
      <point x="230" y="590" type="curve" smooth="yes"/>
      <point x="230" y="551"/>
      <point x="199" y="520"/>
    </contour>
  </outline>
</glyph>
<glyph name="quoteright" format="1">
  <advance width="300"/>
  <unicode hex="2019"/>
  <outline>
    <contour>
      <point x="140" y="810" type="curve" smooth="yes"/>
      <point x="191" y="810"/>
      <point x="220" y="771"/>
      <point x="220" y="720" type="curve" smooth="yes"/>
      <point x="220" y="642"/>
      <point x="174" y="563"/>
      <point x="115" y="520" type="curve"/>
      <point x="60" y="520" type="line"/>
      <point x="110" y="563"/>
      <point x="140" y="615"/>
      <point x="140" y="670" type="curve"/>
      <point x="101" y="670"/>
      <point x="70" y="701"/>
      <point x="70" y="740" type="curve" smooth="yes"/>
      <point x="70" y="779"/>
      <point x="101" y="810"/>
    </contour>
  </outline>
</glyph>
<glyph name="Euro" format="1">
  <advance width="660"/>
  <unicode hex="20AC"/>
  <outline>
    <contour>
      <point x="610" y="740" type="curve"/>
      <point x="560" y="680" type="line"/>
      <point x="521" y="718"/>
      <point x="484" y="735"/>
      <point x="420" y="735" type="curve" smooth="yes"/>
      <point x="296" y="735"/>
      <point x="244" y="633"/>
      <point x="240" y="510" type="curve"/>
      <point x="510" y="510" type="line"/>
      <point x="510" y="450" type="line"/>
      <point x="240" y="450" type="line"/>
      <point x="240" y="350" type="line"/>
      <point x="510" y="350" type="line"/>
      <point x="510" y="290" type="line"/>
      <point x="240" y="290" type="line"/>
      <point x="240" y="170"/>
      <point x="289" y="70"/>
      <point x="420" y="70" type="curve" smooth="yes"/>
      <point x="484" y="70"/>
      <point x="521" y="82"/>
      <point x="560" y="120" type="curve"/>
      <point x="610" y="55" type="line"/>
      <point x="560" y="7"/>
      <point x="501" y="-20"/>
      <point x="420" y="-20" type="curve" smooth="yes"/>
      <point x="243" y="-20"/>
      <point x="140" y="108"/>
      <point x="140" y="290" type="curve"/>
      <point x="40" y="290" type="line"/>
      <point x="40" y="350" type="line"/>
      <point x="140" y="350" type="line"/>
      <point x="140" y="450" type="line"/>
      <point x="40" y="450" type="line"/>
      <point x="40" y="510" type="line"/>
      <point x="140" y="510" type="line"/>
      <point x="145" y="690"/>
      <point x="246" y="820"/>
      <point x="420" y="820" type="curve" smooth="yes"/>
      <point x="501" y="820"/>
      <point x="560" y="788"/>
    </contour>
  </outline>
</glyph>
<glyph name="uni0E49.low" format="1">
  <advance width="0"/>
  <unicode hex="EE49"/>
  <outline>
    <contour>
      <point x="-250" y="920" type="curve" smooth="yes"/>
      <point x="-209" y="920"/>
      <point x="-175" y="886"/>
      <point x="-175" y="845" type="curve" smooth="yes"/>
      <point x="-175" y="781"/>
      <point x="-230" y="755"/>
      <point x="-230" y="755" type="curve"/>
      <point x="-147" y="755"/>
      <point x="-85" y="806"/>
      <point x="-85" y="910" type="curve"/>
      <point x="0" y="910" type="line"/>
      <point x="0" y="780"/>
      <point x="-70" y="700"/>
      <point x="-230" y="700" type="curve" smooth="yes"/>
      <point x="-310" y="700" type="line" smooth="yes"/>
      <point x="-348" y="700"/>
      <point x="-360" y="755"/>
      <point x="-360" y="755" type="curve"/>
      <point x="-315" y="755" type="line" smooth="yes"/>
      <point x="-302" y="755"/>
      <point x="-285" y="761"/>
      <point x="-270" y="773" type="curve"/>
      <point x="-301" y="781"/>
      <point x="-325" y="810"/>
      <point x="-325" y="845" type="curve" smooth="yes"/>
      <point x="-325" y="886"/>
      <point x="-291" y="920"/>
    </contour>
    <contour>
      <point x="-250" y="880" type="curve" smooth="yes"/>
      <point x="-269" y="880"/>
      <point x="-285" y="864"/>
      <point x="-285" y="845" type="curve" smooth="yes"/>
      <point x="-285" y="826"/>
      <point x="-269" y="810"/>
      <point x="-250" y="810" type="curve" smooth="yes"/>
      <point x="-231" y="810"/>
      <point x="-215" y="826"/>
      <point x="-215" y="845" type="curve" smooth="yes"/>
      <point x="-215" y="864"/>
      <point x="-231" y="880"/>
    </contour>
  </outline>
</glyph>
<glyph name="uni0E4A.low" format="1">
  <advance width="0"/>
  <unicode hex="EE4A"/>
  <outline>
    <contour>
      <point x="-190" y="880" type="curve"/>
      <point x="-214" y="840" type="line"/>
      <point x="-260" y="840" type="line"/>
      <point x="-263" y="858"/>
      <point x="-272" y="880"/>
      <point x="-294" y="880" type="curve" smooth="yes"/>
      <point x="-317" y="880"/>
      <point x="-333" y="852"/>
      <point x="-334" y="820" type="curve"/>
      <point x="-324" y="827"/>
      <point x="-312" y="830"/>
      <point x="-300" y="830" type="curve" smooth="yes"/>
      <point x="-264" y="830"/>
      <point x="-234" y="801"/>
      <point x="-234" y="765" type="curve" smooth="yes"/>
      <point x="-234" y="730"/>
      <point x="-264" y="700"/>
      <point x="-300" y="700" type="curve" smooth="yes"/>
      <point x="-355" y="700"/>
      <point x="-390" y="755"/>
      <point x="-390" y="815" type="curve" smooth="yes"/>
      <point x="-390" y="876"/>
      <point x="-350" y="930"/>
      <point x="-294" y="930" type="curve" smooth="yes"/>
      <point x="-261" y="930"/>
      <point x="-242" y="906"/>
      <point x="-234" y="887" type="curve"/>
      <point x="-210" y="930" type="line"/>
      <point x="-190" y="930" type="line" smooth="yes"/>
      <point x="-134" y="930"/>
      <point x="-100" y="881"/>
      <point x="-100" y="820" type="curve" smooth="yes"/>
      <point x="-100" y="805"/>
      <point x="-102" y="790"/>
      <point x="-106" y="776" type="curve"/>
      <point x="-86" y="787"/>
      <point x="-70" y="822"/>
      <point x="-70" y="920" type="curve"/>
      <point x="0" y="920" type="line"/>
      <point x="0" y="811"/>
      <point x="-18" y="705"/>
      <point x="-190" y="705" type="curve"/>
      <point x="-190" y="750" type="line"/>
      <point x="-168" y="750"/>
      <point x="-154" y="781"/>
      <point x="-154" y="820" type="curve" smooth="yes"/>
      <point x="-154" y="846"/>
      <point x="-169" y="872"/>
    </contour>
    <contour>
      <point x="-300" y="795" type="curve" smooth="yes"/>
      <point x="-316" y="795"/>
      <point x="-330" y="782"/>
      <point x="-330" y="765" type="curve" smooth="yes"/>
      <point x="-330" y="749"/>
      <point x="-316" y="735"/>
      <point x="-300" y="735" type="curve" smooth="yes"/>
      <point x="-283" y="735"/>
      <point x="-270" y="749"/>
      <point x="-270" y="765" type="curve" smooth="yes"/>
      <point x="-270" y="782"/>
      <point x="-283" y="795"/>
    </contour>
  </outline>
</glyph>
<glyph name="uni0E4B.low" format="1">
  <advance width="0"/>
  <unicode hex="EE4B"/>
  <outline>
    <contour>
      <point x="-200" y="940" type="line"/>
      <point x="-120" y="940" type="line"/>
      <point x="-120" y="845" type="line"/>
      <point x="-20" y="845" type="line"/>
      <point x="-20" y="785" type="line"/>
      <point x="-120" y="785" type="line"/>
      <point x="-120" y="670" type="line"/>
      <point x="-200" y="712" type="line"/>
      <point x="-200" y="785" type="line"/>
      <point x="-300" y="785" type="line"/>
      <point x="-300" y="845" type="line"/>
      <point x="-200" y="845" type="line"/>
    </contour>
  </outline>
</glyph>
<glyph name="uni0E4C.low" format="1">
  <advance width="0"/>
  <unicode hex="EE4C"/>
  <outline>
    <contour>
      <point x="-204" y="780" type="curve" smooth="yes"/>
      <point x="-224" y="780"/>
      <point x="-240" y="764"/>
      <point x="-240" y="745" type="curve" smooth="yes"/>
      <point x="-240" y="726"/>
      <point x="-224" y="710"/>
      <point x="-204" y="710" type="curve" smooth="yes"/>
      <point x="-185" y="710"/>
      <point x="-170" y="726"/>
      <point x="-170" y="745" type="curve" smooth="yes"/>
      <point x="-170" y="764"/>
      <point x="-185" y="780"/>
    </contour>
    <contour>
      <point x="-144" y="930" type="curve"/>
      <point x="-60" y="930" type="line"/>
      <point x="-60" y="866"/>
      <point x="-120" y="839"/>
      <point x="-161" y="806" type="curve"/>
      <point x="-142" y="793"/>
      <point x="-130" y="770"/>
      <point x="-130" y="745" type="curve" smooth="yes"/>
      <point x="-130" y="704"/>
      <point x="-163" y="670"/>
      <point x="-204" y="670" type="curve" smooth="yes"/>
      <point x="-246" y="670"/>
      <point x="-280" y="704"/>
      <point x="-280" y="745" type="curve" smooth="yes"/>
      <point x="-280" y="842"/>
      <point x="-144" y="863"/>
    </contour>
  </outline>
</glyph>
<glyph name="uni0E48.low.left" format="1">
  <advance width="0"/>
  <unicode hex="F0E48"/>
  <outline>
    <contour>
      <point x="-390" y="930" type="line"/>
      <point x="-310" y="930" type="line"/>
      <point x="-310" y="680" type="line"/>
      <point x="-390" y="717" type="line"/>
    </contour>
  </outline>
</glyph>
<glyph name="uni0E49.low.left" format="1">
  <advance width="0"/>
  <unicode hex="F0E49"/>
  <outline>
    <contour>
      <point x="-470" y="920" type="curve" smooth="yes"/>
      <point x="-429" y="920"/>
      <point x="-395" y="886"/>
      <point x="-395" y="845" type="curve" smooth="yes"/>
      <point x="-395" y="781"/>
      <point x="-450" y="755"/>
      <point x="-450" y="755" type="curve"/>
      <point x="-367" y="755"/>
      <point x="-305" y="806"/>
      <point x="-305" y="910" type="curve"/>
      <point x="-220" y="910" type="line"/>
      <point x="-220" y="780"/>
      <point x="-290" y="700"/>
      <point x="-450" y="700" type="curve" smooth="yes"/>
      <point x="-530" y="700" type="line" smooth="yes"/>
      <point x="-568" y="700"/>
      <point x="-580" y="755"/>
      <point x="-580" y="755" type="curve"/>
      <point x="-535" y="755" type="line" smooth="yes"/>
      <point x="-522" y="755"/>
      <point x="-505" y="761"/>
      <point x="-490" y="773" type="curve"/>
      <point x="-521" y="781"/>
      <point x="-545" y="810"/>
      <point x="-545" y="845" type="curve" smooth="yes"/>
      <point x="-545" y="886"/>
      <point x="-511" y="920"/>
    </contour>
    <contour>
      <point x="-470" y="880" type="curve" smooth="yes"/>
      <point x="-489" y="880"/>
      <point x="-505" y="864"/>
      <point x="-505" y="845" type="curve" smooth="yes"/>
      <point x="-505" y="826"/>
      <point x="-489" y="810"/>
      <point x="-470" y="810" type="curve" smooth="yes"/>
      <point x="-451" y="810"/>
      <point x="-435" y="826"/>
      <point x="-435" y="845" type="curve" smooth="yes"/>
      <point x="-435" y="864"/>
      <point x="-451" y="880"/>
    </contour>
  </outline>
</glyph>
<glyph name="uni0E4A.low.left" format="1">
  <advance width="0"/>
  <unicode hex="F0E4A"/>
  <outline>
    <contour>
      <point x="-410" y="880" type="curve"/>
      <point x="-434" y="840" type="line"/>
      <point x="-480" y="840" type="line"/>
      <point x="-483" y="858"/>
      <point x="-492" y="880"/>
      <point x="-514" y="880" type="curve" smooth="yes"/>
      <point x="-537" y="880"/>
      <point x="-553" y="852"/>
      <point x="-554" y="820" type="curve"/>
      <point x="-544" y="827"/>
      <point x="-532" y="830"/>
      <point x="-520" y="830" type="curve" smooth="yes"/>
      <point x="-484" y="830"/>
      <point x="-454" y="801"/>
      <point x="-454" y="765" type="curve" smooth="yes"/>
      <point x="-454" y="730"/>
      <point x="-484" y="700"/>
      <point x="-520" y="700" type="curve" smooth="yes"/>
      <point x="-575" y="700"/>
      <point x="-610" y="755"/>
      <point x="-610" y="815" type="curve" smooth="yes"/>
      <point x="-610" y="876"/>
      <point x="-570" y="930"/>
      <point x="-514" y="930" type="curve" smooth="yes"/>
      <point x="-481" y="930"/>
      <point x="-462" y="906"/>
      <point x="-454" y="887" type="curve"/>
      <point x="-430" y="930" type="line"/>
      <point x="-410" y="930" type="line" smooth="yes"/>
      <point x="-354" y="930"/>
      <point x="-320" y="881"/>
      <point x="-320" y="820" type="curve" smooth="yes"/>
      <point x="-320" y="805"/>
      <point x="-322" y="790"/>
      <point x="-326" y="776" type="curve"/>
      <point x="-306" y="787"/>
      <point x="-290" y="822"/>
      <point x="-290" y="920" type="curve"/>
      <point x="-220" y="920" type="line"/>
      <point x="-220" y="811"/>
      <point x="-238" y="705"/>
      <point x="-410" y="705" type="curve"/>
      <point x="-410" y="750" type="line"/>
      <point x="-388" y="750"/>
      <point x="-374" y="781"/>
      <point x="-374" y="820" type="curve" smooth="yes"/>
      <point x="-374" y="846"/>
      <point x="-389" y="872"/>
    </contour>
    <contour>
      <point x="-520" y="795" type="curve" smooth="yes"/>
      <point x="-536" y="795"/>
      <point x="-550" y="782"/>
      <point x="-550" y="765" type="curve" smooth="yes"/>
      <point x="-550" y="749"/>
      <point x="-536" y="735"/>
      <point x="-520" y="735" type="curve" smooth="yes"/>
      <point x="-503" y="735"/>
      <point x="-490" y="749"/>
      <point x="-490" y="765" type="curve" smooth="yes"/>
      <point x="-490" y="782"/>
      <point x="-503" y="795"/>
    </contour>
  </outline>
</glyph>
<glyph name="uni0E4B.low.left" format="1">
  <advance width="0"/>
  <unicode hex="F0E4B"/>
  <outline>
    <contour>
      <point x="-410" y="940" type="line"/>
      <point x="-330" y="940" type="line"/>
      <point x="-330" y="845" type="line"/>
      <point x="-230" y="845" type="line"/>
      <point x="-230" y="785" type="line"/>
      <point x="-330" y="785" type="line"/>
      <point x="-330" y="670" type="line"/>
      <point x="-410" y="712" type="line"/>
      <point x="-410" y="785" type="line"/>
      <point x="-510" y="785" type="line"/>
      <point x="-510" y="845" type="line"/>
      <point x="-410" y="845" type="line"/>
    </contour>
  </outline>
</glyph>
<glyph name="uni0E4C.low.left" format="1">
  <advance width="0"/>
  <unicode hex="F0E4C"/>
  <outline>
    <contour>
      <point x="-384" y="780" type="curve" smooth="yes"/>
      <point x="-404" y="780"/>
      <point x="-420" y="764"/>
      <point x="-420" y="745" type="curve" smooth="yes"/>
      <point x="-420" y="726"/>
      <point x="-404" y="710"/>
      <point x="-384" y="710" type="curve" smooth="yes"/>
      <point x="-365" y="710"/>
      <point x="-350" y="726"/>
      <point x="-350" y="745" type="curve" smooth="yes"/>
      <point x="-350" y="764"/>
      <point x="-365" y="780"/>
    </contour>
    <contour>
      <point x="-324" y="930" type="curve"/>
      <point x="-240" y="930" type="line"/>
      <point x="-240" y="866"/>
      <point x="-300" y="839"/>
      <point x="-341" y="806" type="curve"/>
      <point x="-322" y="793"/>
      <point x="-310" y="770"/>
      <point x="-310" y="745" type="curve" smooth="yes"/>
      <point x="-310" y="704"/>
      <point x="-343" y="670"/>
      <point x="-384" y="670" type="curve" smooth="yes"/>
      <point x="-426" y="670"/>
      <point x="-460" y="704"/>
      <point x="-460" y="745" type="curve" smooth="yes"/>
      <point x="-460" y="842"/>
      <point x="-324" y="863"/>
    </contour>
  </outline>
</glyph>
<glyph name="uni0E4D.low.left" format="1">
  <advance width="0"/>
  <unicode hex="F0E4D"/>
  <outline>
    <contour>
      <point x="-350" y="865" type="curve" smooth="yes"/>
      <point x="-386" y="865"/>
      <point x="-410" y="841"/>
      <point x="-410" y="805" type="curve" smooth="yes"/>
      <point x="-410" y="769"/>
      <point x="-386" y="745"/>
      <point x="-350" y="745" type="curve" smooth="yes"/>
      <point x="-314" y="745"/>
      <point x="-290" y="769"/>
      <point x="-290" y="805" type="curve" smooth="yes"/>
      <point x="-290" y="841"/>
      <point x="-314" y="865"/>
    </contour>
    <contour>
      <point x="-350" y="920" type="curve" smooth="yes"/>
      <point x="-283" y="920"/>
      <point x="-225" y="872"/>
      <point x="-225" y="805" type="curve" smooth="yes"/>
      <point x="-225" y="738"/>
      <point x="-283" y="690"/>
      <point x="-350" y="690" type="curve" smooth="yes"/>
      <point x="-417" y="690"/>
      <point x="-475" y="738"/>
      <point x="-475" y="805" type="curve" smooth="yes"/>
      <point x="-475" y="872"/>
      <point x="-417" y="920"/>
    </contour>
  </outline>
</glyph>
<glyph name="uni0E49.high.left" format="1">
  <advance width="0"/>
  <unicode hex="FEE49"/>
  <outline>
    <contour>
      <point x="-370" y="1220" type="curve" smooth="yes"/>
      <point x="-329" y="1220"/>
      <point x="-295" y="1186"/>
      <point x="-295" y="1145" type="curve" smooth="yes"/>
      <point x="-295" y="1081"/>
      <point x="-350" y="1055"/>
      <point x="-350" y="1055" type="curve"/>
      <point x="-267" y="1055"/>
      <point x="-205" y="1106"/>
      <point x="-205" y="1210" type="curve"/>
      <point x="-120" y="1210" type="line"/>
      <point x="-120" y="1080"/>
      <point x="-190" y="1000"/>
      <point x="-350" y="1000" type="curve" smooth="yes"/>
      <point x="-430" y="1000" type="line" smooth="yes"/>
      <point x="-468" y="1000"/>
      <point x="-480" y="1055"/>
      <point x="-480" y="1055" type="curve"/>
      <point x="-435" y="1055" type="line" smooth="yes"/>
      <point x="-422" y="1055"/>
      <point x="-405" y="1061"/>
      <point x="-390" y="1073" type="curve"/>
      <point x="-421" y="1081"/>
      <point x="-445" y="1110"/>
      <point x="-445" y="1145" type="curve" smooth="yes"/>
      <point x="-445" y="1186"/>
      <point x="-411" y="1220"/>
    </contour>
    <contour>
      <point x="-370" y="1180" type="curve" smooth="yes"/>
      <point x="-389" y="1180"/>
      <point x="-405" y="1164"/>
      <point x="-405" y="1145" type="curve" smooth="yes"/>
      <point x="-405" y="1126"/>
      <point x="-389" y="1110"/>
      <point x="-370" y="1110" type="curve" smooth="yes"/>
      <point x="-351" y="1110"/>
      <point x="-335" y="1126"/>
      <point x="-335" y="1145" type="curve" smooth="yes"/>
      <point x="-335" y="1164"/>
      <point x="-351" y="1180"/>
    </contour>
  </outline>
</glyph>
<glyph name="uni0E4A.high.left" format="1">
  <advance width="0"/>
  <unicode hex="FEE4A"/>
  <outline>
    <contour>
      <point x="-330" y="1180" type="curve"/>
      <point x="-354" y="1140" type="line"/>
      <point x="-400" y="1140" type="line"/>
      <point x="-403" y="1158"/>
      <point x="-412" y="1180"/>
      <point x="-434" y="1180" type="curve" smooth="yes"/>
      <point x="-457" y="1180"/>
      <point x="-473" y="1152"/>
      <point x="-474" y="1120" type="curve"/>
      <point x="-464" y="1127"/>
      <point x="-452" y="1130"/>
      <point x="-440" y="1130" type="curve" smooth="yes"/>
      <point x="-404" y="1130"/>
      <point x="-374" y="1101"/>
      <point x="-374" y="1065" type="curve" smooth="yes"/>
      <point x="-374" y="1030"/>
      <point x="-404" y="1000"/>
      <point x="-440" y="1000" type="curve" smooth="yes"/>
      <point x="-495" y="1000"/>
      <point x="-530" y="1055"/>
      <point x="-530" y="1115" type="curve" smooth="yes"/>
      <point x="-530" y="1176"/>
      <point x="-490" y="1230"/>
      <point x="-434" y="1230" type="curve" smooth="yes"/>
      <point x="-401" y="1230"/>
      <point x="-382" y="1206"/>
      <point x="-374" y="1187" type="curve"/>
      <point x="-350" y="1230" type="line"/>
      <point x="-330" y="1230" type="line" smooth="yes"/>
      <point x="-274" y="1230"/>
      <point x="-240" y="1181"/>
      <point x="-240" y="1120" type="curve" smooth="yes"/>
      <point x="-240" y="1105"/>
      <point x="-242" y="1090"/>
      <point x="-246" y="1076" type="curve"/>
      <point x="-226" y="1087"/>
      <point x="-210" y="1122"/>
      <point x="-210" y="1220" type="curve"/>
      <point x="-140" y="1220" type="line"/>
      <point x="-140" y="1111"/>
      <point x="-158" y="1005"/>
      <point x="-330" y="1005" type="curve"/>
      <point x="-330" y="1050" type="line"/>
      <point x="-308" y="1050"/>
      <point x="-294" y="1081"/>
      <point x="-294" y="1120" type="curve" smooth="yes"/>
      <point x="-294" y="1146"/>
      <point x="-309" y="1172"/>
    </contour>
    <contour>
      <point x="-440" y="1095" type="curve" smooth="yes"/>
      <point x="-456" y="1095"/>
      <point x="-470" y="1082"/>
      <point x="-470" y="1065" type="curve" smooth="yes"/>
      <point x="-470" y="1049"/>
      <point x="-456" y="1035"/>
      <point x="-440" y="1035" type="curve" smooth="yes"/>
      <point x="-423" y="1035"/>
      <point x="-410" y="1049"/>
      <point x="-410" y="1065" type="curve" smooth="yes"/>
      <point x="-410" y="1082"/>
      <point x="-423" y="1095"/>
    </contour>
  </outline>
</glyph>
<glyph name="uni0E4B.high.left" format="1">
  <advance width="0"/>
  <unicode hex="FEE4B"/>
  <outline>
    <contour>
      <point x="-330" y="1240" type="line"/>
      <point x="-250" y="1240" type="line"/>
      <point x="-250" y="1145" type="line"/>
      <point x="-150" y="1145" type="line"/>
      <point x="-150" y="1085" type="line"/>
      <point x="-250" y="1085" type="line"/>
      <point x="-250" y="970" type="line"/>
      <point x="-330" y="1012" type="line"/>
      <point x="-330" y="1085" type="line"/>
      <point x="-430" y="1085" type="line"/>
      <point x="-430" y="1145" type="line"/>
      <point x="-330" y="1145" type="line"/>
    </contour>
  </outline>
</glyph>
<glyph name="uni0E4C.high.left" format="1">
  <advance width="0"/>
  <unicode hex="FEE4C"/>
  <outline>
    <contour>
      <point x="-364" y="1080" type="curve" smooth="yes"/>
      <point x="-384" y="1080"/>
      <point x="-400" y="1064"/>
      <point x="-400" y="1045" type="curve" smooth="yes"/>
      <point x="-400" y="1026"/>
      <point x="-384" y="1010"/>
      <point x="-364" y="1010" type="curve" smooth="yes"/>
      <point x="-345" y="1010"/>
      <point x="-330" y="1026"/>
      <point x="-330" y="1045" type="curve" smooth="yes"/>
      <point x="-330" y="1064"/>
      <point x="-345" y="1080"/>
    </contour>
    <contour>
      <point x="-304" y="1230" type="curve"/>
      <point x="-220" y="1230" type="line"/>
      <point x="-220" y="1166"/>
      <point x="-280" y="1139"/>
      <point x="-321" y="1106" type="curve"/>
      <point x="-302" y="1093"/>
      <point x="-290" y="1070"/>
      <point x="-290" y="1045" type="curve" smooth="yes"/>
      <point x="-290" y="1004"/>
      <point x="-323" y="970"/>
      <point x="-364" y="970" type="curve" smooth="yes"/>
      <point x="-406" y="970"/>
      <point x="-440" y="1004"/>
      <point x="-440" y="1045" type="curve" smooth="yes"/>
      <point x="-440" y="1142"/>
      <point x="-304" y="1163"/>
    </contour>
  </outline>
</glyph>
<glyph name="uni0E4D.high.left" format="1">
  <advance width="0"/>
  <unicode hex="FEE4D"/>
  <outline>
    <contour>
      <point x="-310" y="1165" type="curve" smooth="yes"/>
      <point x="-346" y="1165"/>
      <point x="-370" y="1141"/>
      <point x="-370" y="1105" type="curve" smooth="yes"/>
      <point x="-370" y="1069"/>
      <point x="-346" y="1045"/>
      <point x="-310" y="1045" type="curve" smooth="yes"/>
      <point x="-274" y="1045"/>
      <point x="-250" y="1069"/>
      <point x="-250" y="1105" type="curve" smooth="yes"/>
      <point x="-250" y="1141"/>
      <point x="-274" y="1165"/>
    </contour>
    <contour>
      <point x="-310" y="1220" type="curve" smooth="yes"/>
      <point x="-243" y="1220"/>
      <point x="-185" y="1172"/>
      <point x="-185" y="1105" type="curve" smooth="yes"/>
      <point x="-185" y="1038"/>
      <point x="-243" y="990"/>
      <point x="-310" y="990" type="curve" smooth="yes"/>
      <point x="-377" y="990"/>
      <point x="-435" y="1038"/>
      <point x="-435" y="1105" type="curve" smooth="yes"/>
      <point x="-435" y="1172"/>
      <point x="-377" y="1220"/>
    </contour>
  </outline>
</glyph>
